<?xml version="1.0" encoding="UTF-8"?>
<svg id="Layer_1" data-name="Layer 1" xmlns="http://www.w3.org/2000/svg" viewBox="0 0 899.76 656.44">
  <defs>
    <style>
      .cls-1 {
        fill: none;
      }
    </style>
  </defs>
  <path class="cls-1" d="M537.38,179.13v-17.33c0-5.3-4.31-9.6-9.61-9.6h-58.79v26.94h68.4Z"/>
  <path d="M674.78,179.13h-124.41v-17.33c0-12.48-10.12-22.6-22.6-22.6h-117.58c-12.48,0-22.6,10.12-22.6,22.6v17.33h-124.41c-13.67,0-24.76,11.09-24.76,24.76v85.45c0,18.61,14.01,34.24,32.51,36.26h396.1c18.5-2.03,32.51-17.65,32.51-36.26v-85.45c0-13.67-11.09-24.76-24.76-24.76ZM537.38,179.13h-136.79v-17.33c0-5.3,4.31-9.6,9.61-9.6h117.58c5.3,0,9.61,4.31,9.61,9.6v17.33Z"/>
  <path d="M696.02,321.63c-7.47,9.72-19.03,15.42-31.29,15.42h-144.18c-3.27,0-5.93,2.65-5.93,5.93v12c0,8.54-6.92,15.45-15.45,15.45h-60.38c-8.54,0-15.45-6.92-15.45-15.45v-12c0-3.27-2.65-5.93-5.93-5.93h-144.18c-12.26,0-23.82-5.7-31.29-15.42-1.14-1.49-3.52-.68-3.52,1.19v164.07c0,13.67,11.09,24.76,24.76,24.76h411.6c13.67,0,24.76-11.09,24.76-24.76v-164.07c0-1.87-2.38-2.68-3.52-1.19Z"/>
</svg>