<svg xmlns="http://www.w3.org/2000/svg" viewBox="0 0 301.72 228.21">
  <style>
    .letters { fill: #fff; }
  </style>

  <!-- P letter -->
  <path class="letters" fill-rule="evenodd" d="M156.79,91.23v-.32c0-24.5-18.02-38.88-45.99-38.88h-40.95c-3.57,0-6.46,2.89-6.46,6.46v97.7c0,3.57,2.89,6.46,6.46,6.46h17.74c3.57,0,6.46-2.89,6.46-6.46v-18.69c0-3.57,2.89-6.46,6.46-6.46h8.71c27.5,0,47.57-13.75,47.57-39.83ZM126.13,92.65c0,8.69-6.64,14.38-17.54,14.38h-8.08c-3.57,0-6.46-2.89-6.46-6.46v-16.32c0-3.57,2.89-6.46,6.46-6.46h7.92c11.06,0,17.7,5.06,17.7,14.54v.32Z"/>

  <!-- S letter -->
  <path class="letters" d="M252.45,128.21v.32c0,22.6-17.86,36.03-44.72,36.03-17.11,0-33.5-4.7-46.43-13.99-3.05-2.19-3.58-6.52-1.17-9.39l8.96-10.7c2.13-2.55,5.83-3.03,8.6-1.18,9.65,6.45,20.17,9.82,31.16,9.82,8.22,0,12.64-2.84,12.64-7.59v-.32c0-4.58-3.63-7.11-18.65-10.59-23.55-5.37-41.72-12.01-41.72-34.77v-.32c0-20.54,16.28-35.4,42.83-35.4,16.05,0,29.11,3.68,40.06,10.76,3.09,1.99,3.88,6.17,1.76,9.16l-8.07,11.4c-1.95,2.75-5.67,3.5-8.59,1.81-8.67-5.03-17.75-7.68-25.95-7.68-7.43,0-11.06,3.16-11.06,7.11v.32c0,5.06,3.79,7.27,19.12,10.75,25.44,5.53,41.25,13.75,41.25,34.45Z"/>

  <!-- Square 1 — walks around the top -->
  <g>
    <animateMotion dur="12s" repeatCount="indefinite"
      path="M50,20 L160,15 Q175,15 175,30 L260,35 Q280,40 275,55 L270,65 Q260,75 245,70 L170,50 Q155,48 140,50 L60,55 Q35,55 35,35 Z"
      rotate="auto"/>
    <rect x="-8" y="-8" width="16" height="16" rx="2.5" fill="#fff">
      <animateTransform attributeName="transform" type="rotate"
        values="0;90;90;180;180;270;270;360"
        keyTimes="0;0.1;0.15;0.25;0.3;0.5;0.55;1"
        dur="3s" repeatCount="indefinite"/>
    </rect>
  </g>

  <!-- Square 2 — walks along the bottom -->
  <g>
    <animateMotion dur="14s" repeatCount="indefinite"
      path="M260,175 L200,185 Q180,190 160,185 L80,175 Q55,172 50,185 L45,195 Q42,210 60,210 L155,200 Q170,198 185,200 L255,195 Q275,190 272,175 Z"
      rotate="auto"/>
    <rect x="-7" y="-7" width="14" height="14" rx="2" fill="#fff">
      <animateTransform attributeName="transform" type="rotate"
        values="0;90;90;180;180;270;270;360"
        keyTimes="0;0.1;0.15;0.25;0.3;0.5;0.55;1"
        dur="3.5s" repeatCount="indefinite"/>
    </rect>
  </g>

  <!-- Square 3 — walks down the right side -->
  <g>
    <animateMotion dur="10s" repeatCount="indefinite"
      path="M275,70 L280,90 Q282,110 278,125 L270,150 Q265,165 255,170 L245,168 Q240,160 245,145 L258,110 Q262,90 258,75 L265,60 Q270,55 275,65 Z"
      rotate="auto"/>
    <rect x="-9" y="-9" width="18" height="18" rx="3" fill="#fff">
      <animateTransform attributeName="transform" type="rotate"
        values="0;90;90;180;180;270;270;360"
        keyTimes="0;0.12;0.18;0.3;0.35;0.55;0.6;1"
        dur="2.5s" repeatCount="indefinite"/>
    </rect>
  </g>

  <!-- Square 4 — walks down the left side -->
  <g>
    <animateMotion dur="11s" repeatCount="indefinite"
      path="M45,50 L40,70 Q38,85 42,100 L50,130 Q55,150 50,165 L42,170 Q32,165 35,148 L30,115 Q28,95 32,75 L38,55 Q42,42 48,45 Z"
      rotate="auto"/>
    <rect x="-6" y="-6" width="12" height="12" rx="2" fill="#fff">
      <animateTransform attributeName="transform" type="rotate"
        values="0;90;90;180;180;270;270;360"
        keyTimes="0;0.1;0.15;0.25;0.3;0.5;0.55;1"
        dur="2.8s" repeatCount="indefinite"/>
    </rect>
  </g>
</svg>
