<svg xmlns="http://www.w3.org/2000/svg" viewBox="0 0 301.72 228.21">
  <style>
    .draw {
      fill: transparent;
      stroke: #fff;
      stroke-width: 1.5;
      stroke-dasharray: 800;
      stroke-dashoffset: 800;
      animation: drawIn 2s ease-out forwards, fillIn 0.6s ease-in 1.8s forwards;
    }
    .draw.p-letter { animation-delay: 0s, 1.8s; }
    .draw.s-letter { animation-delay: 0.3s, 2.1s; }
    .sq {
      fill: transparent;
      stroke: #fff;
      stroke-width: 1.5;
      stroke-dasharray: 200;
      stroke-dashoffset: 200;
      animation:
        drawSq 0.8s ease-out forwards,
        fillIn 0.4s ease-in forwards,
        tumbleAfter 5s ease-in-out infinite;
    }
    .sq1 {
      transform-origin: 50px 176px;
      animation-delay: 1s, 1.6s, 2.8s;
    }
    .sq2 {
      transform-origin: 50px 39px;
      animation-delay: 0.7s, 1.3s, 2.8s;
    }
    .sq3 {
      transform-origin: 268px 61px;
      animation-delay: 1.2s, 1.8s, 2.8s;
    }
    .sq4 {
      transform-origin: 157px 170px;
      animation-delay: 0.9s, 1.5s, 2.8s;
    }

    @keyframes drawIn {
      to { stroke-dashoffset: 0; }
    }
    @keyframes drawSq {
      to { stroke-dashoffset: 0; }
    }
    @keyframes fillIn {
      to { fill: #fff; }
    }
    @keyframes tumbleAfter {
      0%   { transform: translate(0,0) rotate(0deg); }
      25%  { transform: translate(-5px,-3px) rotate(-25deg); }
      50%  { transform: translate(2px,-6px) rotate(10deg); }
      75%  { transform: translate(5px,3px) rotate(25deg); }
      100% { transform: translate(0,0) rotate(0deg); }
    }
  </style>

  <!-- P letter — draws then fills -->
  <path class="draw p-letter" fill-rule="evenodd" d="M156.79,91.23v-.32c0-24.5-18.02-38.88-45.99-38.88h-40.95c-3.57,0-6.46,2.89-6.46,6.46v97.7c0,3.57,2.89,6.46,6.46,6.46h17.74c3.57,0,6.46-2.89,6.46-6.46v-18.69c0-3.57,2.89-6.46,6.46-6.46h8.71c27.5,0,47.57-13.75,47.57-39.83ZM126.13,92.65c0,8.69-6.64,14.38-17.54,14.38h-8.08c-3.57,0-6.46-2.89-6.46-6.46v-16.32c0-3.57,2.89-6.46,6.46-6.46h7.92c11.06,0,17.7,5.06,17.7,14.54v.32Z"/>

  <!-- S letter — draws then fills -->
  <path class="draw s-letter" d="M252.45,128.21v.32c0,22.6-17.86,36.03-44.72,36.03-17.11,0-33.5-4.7-46.43-13.99-3.05-2.19-3.58-6.52-1.17-9.39l8.96-10.7c2.13-2.55,5.83-3.03,8.6-1.18,9.65,6.45,20.17,9.82,31.16,9.82,8.22,0,12.64-2.84,12.64-7.59v-.32c0-4.58-3.63-7.11-18.65-10.59-23.55-5.37-41.72-12.01-41.72-34.77v-.32c0-20.54,16.28-35.4,42.83-35.4,16.05,0,29.11,3.68,40.06,10.76,3.09,1.99,3.88,6.17,1.76,9.16l-8.07,11.4c-1.95,2.75-5.67,3.5-8.59,1.81-8.67-5.03-17.75-7.68-25.95-7.68-7.43,0-11.06,3.16-11.06,7.11v.32c0,5.06,3.79,7.27,19.12,10.75,25.44,5.53,41.25,13.75,41.25,34.45Z"/>

  <!-- Squares — draw in, fill, then tumble forever -->
  <path class="sq sq1" d="M65.39,167.12v17.74c0,3.57-2.89,6.46-6.46,6.46h-17.74c-3.57,0-6.46-2.89-6.46-6.46v-17.74c0-3.57,2.89-6.46,6.46-6.46h17.74c3.57,0,6.46,2.89,6.46,6.46Z"/>
  <path class="sq sq2" d="M34.73,47.51v-17.74c0-3.57,2.89-6.46,6.46-6.46h17.74c3.57,0,6.46,2.89,6.46,6.46v17.74c0,3.57-2.89,6.46-6.46,6.46h-17.74c-3.57,0-6.46-2.89-6.46-6.46Z"/>
  <path class="sq sq3" d="M285.36,63.65l-10.14,14.56c-2.04,2.93-6.07,3.65-8.99,1.61l-14.56-10.14c-2.93-2.04-3.65-6.07-1.61-8.99l10.14-14.56c2.04-2.93,6.07-3.65,8.99-1.61l14.56,10.14c2.93,2.04,3.65,6.07,1.61,8.99Z"/>
  <path class="sq sq4" d="M174.11,172.73l-11.49,13.52c-2.31,2.72-6.39,3.05-9.11.74l-13.52-11.49c-2.72-2.31-3.05-6.39-.74-9.11l11.49-13.52c2.31-2.72,6.39-3.05,9.11-.74l13.52,11.49c2.72,2.31,3.05,6.39.74,9.11Z"/>
</svg>
