<?xml version="1.0" encoding="UTF-8"?>
<svg xmlns="http://www.w3.org/2000/svg" xmlns:xlink="http://www.w3.org/1999/xlink" viewBox="0 0 5198.39 1695.6">
  <defs>
    <style>
      .cls-1 {
        fill: #211e21;
      }

      .cls-2 {
        stroke-dasharray: 40.07 40.07;
      }

      .cls-2, .cls-3, .cls-4, .cls-5 {
        stroke: #d4cdaf;
      }

      .cls-2, .cls-3, .cls-4, .cls-5, .cls-6 {
        fill: none;
        stroke-miterlimit: 10;
      }

      .cls-2, .cls-4 {
        stroke-width: 4px;
      }

      .cls-7 {
        fill: #949286;
      }

      .cls-8 {
        fill: #7d717c;
      }

      .cls-9 {
        fill: url(#linear-gradient);
      }

      .cls-3, .cls-5 {
        stroke-width: 2px;
      }

      .cls-10 {
        fill: #695f68;
      }

      .cls-11 {
        isolation: isolate;
      }

      .cls-12 {
        fill: #e0b78b;
      }

      .cls-13, .cls-14 {
        fill: #d4cdaf;
      }

      .cls-15 {
        fill: #a88662;
      }

      .cls-14, .cls-16 {
        mix-blend-mode: screen;
        opacity: .45;
      }

      .cls-17 {
        fill: #b0ae9f;
      }

      .cls-18 {
        fill: #f5b26b;
      }

      .cls-19 {
        fill: #b8ad91;
      }

      .cls-20 {
        fill: #c0c2a9;
      }

      .cls-5 {
        stroke-dasharray: 39.79 39.79;
      }

      .cls-6 {
        stroke: #37ff00;
      }

      .cls-21 {
        fill: #ebaf7f;
      }
    </style>
    <linearGradient id="linear-gradient" x1="2599.19" y1="1198.18" x2="2599.19" y2="0" gradientUnits="userSpaceOnUse">
      <stop offset="0" stop-color="#00e6ff"/>
      <stop offset="1" stop-color="#004a6e"/>
    </linearGradient>
  </defs>
  <g class="cls-11">
    <g id="Layer_2">
      <rect class="cls-9" x="0" width="5198.39" height="1198.18"/>
      <path class="cls-20" d="M352.54,1244.03c3.19,71.24-27.45,142.2-69.83,197.05-5.09,6.58-10.31,12.83-15.65,18.8,92.66-4.89,185.33-9.92,278.13-8.32,103.88,1.8,207.52,9.46,311.21,15.4,104.34,5.98,208.69,7.45,313.16,9.67,753.97,16.02,1508.74,16.37,2262.88,13.39,377.99-1.5,756.01-6.7,1133.78-20,146.68-5.16,293.34-15,440.01-21,14.4-29.11,30.7-57.14,49.42-83.3,35.96-50.23,74.95-97.28,114.62-144,.54-2.74,1.04-5.5,1.53-8.26,6.81-53.16,14.23-106.48,25.8-158.75-1.64.38-3.29.67-5.09.67-9.32-.01-18.7-2.94-27.87-4.31-8.98-1.35-17.31-3.55-26.57-2.21-13.62,1.97-26.25,7.44-38.67,13.11-12.83,5.86-27.94,10.02-41.73,13-7.66,1.65-15.8,2.55-23.62,2.77-22.48.64-45.11,2.14-67.59,2.28-8.2.05-16.88.78-25.01.11-6.65-.55-13.7-3.6-19.98-5.77-14.47-5-25.23-8.48-40.84-7.32-13.28.99-26.17,1.84-39.47,1.72-14.07-.12-30.13.63-42.89,6.78-11.21,5.4-23.03,7.9-35.15,10.46-8.21,1.73-16.8,5.14-25.02,4.99-13.61-.24-27.65,2.41-41.02,5.04-11.7,2.3-23.66.51-35.58-1.03-11.34-1.46-21.69-6.12-32.71-8-14.92-2.55-30.22,1.47-45.09-.85-11.1-1.73-21.07-6.1-30.77-11.49-23.57-13.09-54.62-19.52-81.44-19.23-32.45.34-64.87-2.25-97.38-2.16-40.17.1-80.54.95-120.7-.26-61.82-1.86-122.23-7.05-182.67-20.19-38.93-8.46-77.84-20.13-118.02-20.19-11.58.63-23.03,2.19-34.35,4.67-16.9,2.85-33.71,6.17-50.43,9.97-21.14,4.69-42.25,9.36-63.55,13.35-30.65,5.75-61.59,9.89-92.74,11.66-24.91,1.41-52.59,3.77-76.84-3.15-6.65-1.9-12.75-2.31-19.53-2.91-9.23-.82-16.83-4.63-25.81-5.89-31.62-4.45-65.29,2.11-96.74,4.78-17.56,1.49-33.58,5.86-50.48,11.08-1.03.32-2.06.63-3.09.93-18.21,5.33-36.4,8.14-55.08,11.98-12.33,2.54-24.07,7.93-35.89,12.21-15.16,5.48-30.68,9.86-45.86,15.28-14.84,5.3-28.03,12.74-42.05,19.75-8.73,4.36-17.28,6.68-27.04,5.34-5.3-.73-10.51-2.12-15.71-3.35-5.8-1.37-11.62-2.67-17.4-4.13-16.86-4.23-34.24-4.63-51.08-8.7-8.64-2.09-17.03-4.87-25.65-6.98-21.82-5.35-43.02-12.47-65.63-13.74-12.67-.71-25.28-.26-37.92-1.58-12.64-1.33-24.95-3.94-37.41-6.49-21.82-4.45-43.44-10.74-65.82-10.12-33.67.92-67.48.02-101.16.02-28.96,0-58,.66-86.94.11-25.07-.47-49.5-5.85-73.78,1.81-21.66,6.83-44.72,7.38-65.87,15.92-12.34,4.98-29.04,5.02-42.17,4.16-14.04-.93-27.75-4.38-41.83-4.26-12.82.1-25.65,0-38.47,0-15.18,0-29.45-1.32-44.55-3.05-29.7-3.42-59.13-4.73-88.96-2.49-22.19,1.67-43.05-.27-65.16-1.38-12.19-.61-21.2-2.92-32.9.67-26.08,8-52.34,11.67-78.74,18.28-10.06,2.52-19.5,5.56-29.43,8.51-11.67,3.46-23.75,4.52-35.6,7.11-12.41,2.72-23.58,7.21-36.33,7.88-9.96.53-19.79,1.91-29.77,2.45-22.88,1.25-44.64,2.96-67.5-.22-20.17-2.81-39.98-4.64-60.31-4.44-9.45.09-19.51-.63-28.86-2.08-2.92-.45-5.62-1.64-8.51-2.12-6.97-1.17-14.17,1.17-21.15,1.34-6.37.15-11.66.23-17.75,2.12-2.93.91-4.51,1.48-6.91,3.64-4.98,4.48-9.6,7.71-15.69,10.82-11.7,5.98-26.2,11.39-39.26,13.93-6.52,1.27-13.13.02-19.68,1.33-8.5,1.71-16.64,2.86-25.36,3.17-12.27.44-24.66-1.54-36.9-.2-11.38,1.24-21.69,6.32-33.24,7.07-16.74,1.1-34.27.06-49-8.69-8.28-4.92-15.41-11.57-22.97-17.49-11.14-8.72-23.08-15.65-35.63-22.13-30.25-15.62-60.01-32.64-92.36-43.66-29.59-10.08-58.68-15.92-89.71-15.87-13.16.02-27.54,1.83-40.5-.04-7.27-1.05-14.08-5.44-21.23-7.36-4.23-1.13-7.4-2.02-11.46-3.61-19.4-7.57-42.05-12.76-62.89-13.56-8.71-.33-18.07-.2-26.63,1.71-6.39,1.43-12.64,4.37-19.14,5.06-18.13,1.94-36-7.14-54.19-6.95-11.27.11-21.86,3.75-32.99,4.66-7.9.65-16,.18-23.93.02-9.61-.2-17.99-.04-26.71,4.26-8.78,4.33-14.9,12.01-24.5,15.05-7.69,2.44-15.95-.42-23.64-1.48-14.07-1.93-28.88-4.05-43.03-1.43-23.68,4.39-43.02,22.93-64.31,32.87-6.71,3.13-12.99,7.37-19.71,10.36-8.9,3.95-21.24,4.73-30.87,4.84-21.33.24-40.65,3.34-61.35,8.21-18.62,4.38-35.16,12.44-52.4,20.22-10.98,4.95-23.77,1.97-35.18,4.72-2.28.55-5.11,1.44-7.28,2.25-9.53,3.57-21.04,9.27-31.42,8.83-3.51-.15-6.88-1.35-10.31-1.99-15.11-2.8-30.66-2.54-45.85-5.41-20.55-3.88-41.31-6.34-61.71-11.02-7.72-1.77-14.38-5.91-21.87-8.24-5.38-1.67-11.21-2.11-16.56-3.7-3.37-1-5.55-2.49-8.69-4.11-13.2-6.8-28.02-10.36-41.52-16.42-8.29-3.72-16.45.36-25.55.06-9.97-.33-21.15,4.2-30.61,7.18-8.28,2.61-16.53,6.01-25.05,7.81-10.51,2.22-21.12,4.07-31.8,5.65,18.69,43.26,29.13,89.16,31.26,136.71Z"/>
      <path class="cls-19" d="M141.95,1218.13c50.81,50.81,80.62,116.89,91.16,186.69,9.01,19.62,17.76,39.36,25.22,59.5,119.1,1.96,238.2,4.17,357.3,6.13,379.26,6.25,758.2,6.58,1137.4-3.81,379.26-10.39,758.29-27.48,1137.35-43.29,381.23-15.9,762.57-30.54,1144.13-35.79,188.33-2.59,376.71-2.88,565.04.09,135.55,2.14,272.66,9.73,407.99-2.87,35.51-6.53,70.47-15.21,104.66-26.72,17.69-9.14,34.86-19.16,51.52-30.07,9.34-8.4,18.41-17.09,27.17-26.08,1.37-36.03,1.78-72.09,6.29-108.16,5.17-41.32,8.04-83.65,13.69-125.35-3.91.72-7.88,1.88-11.52,2.46-11.32,1.81-22.74,3.17-34.13,4.45-23.88,2.68-47.89,1.63-71.87,1.61-17.1-.01-40.76-4.21-56.25,4.31-13.8,7.59-29.06,11.62-44.53,14.06-11.26,1.77-24.43,1.47-34.81,5.09-6.3,2.2-9.66.53-16.27-.52-14.38-2.28-29.03-3.11-43.47-5.27-19.42-2.9-39.05-6.65-58.55-8.84-14.75-1.65-29.58-1.92-44.32-3.78-38.18-4.81-75.94-24.04-114.25-10.18-19.34,7-37.13,15.64-57.45,19.88-23.21,4.85-47.09,4.5-70.22,9.71-15.31,3.45-30.24,7.22-45.87,8.99-14.17,1.61-28.26,4.28-41.67,9.34-11.49,4.34-22.27,4.51-34.64,4.52-23.4.02-46.92.84-70.23-1.54-21.82-2.22-43.75-1.24-65.61.19-48.11,3.13-96.46-1.16-144.4-5.03-33.71-2.72-67.41-5.93-100.81-11.32-6.15-.99-15.68-.81-20.47-5.37-3.04-2.89-3.64-7.49-6.42-10.63-4.46-5.04-11.33-5.64-17.53-7.02-7.67-1.7-15.51-3.12-22.87-5.93-10.67-4.07-24.53-2.56-35.72-1.67-21,1.67-42.15,3.49-63.21,4-25.46.61-50.91,2.21-76.37,2.05-4.71-.03-7.73.79-12.14,2.74-14.18,6.28-27.22,15.63-40.98,22.75-34.13,17.65-70.95,28.43-109.15,31.53-18.03,1.47-36.65,5.27-54.76,3.18-33.91-3.91-68.18-5.97-101.72-12.57-43.12-8.48-85.1-20.84-128.92-25.49-5.59-.59-10.84-.27-16.35-.35-13.37-.21-27-3.96-39.84-7.45-27.01-7.33-53.96-16.44-79.88-26.72-9.15-3.63-17.79-9.36-26.96-12.67-41.79-15.1-86.58-3.75-127.51,7.45-26.79,7.33-53.97,12.94-80.85,19.91-20.95,5.43-42.57,12.87-64.24,15.12-33.38,3.47-67.12,6.68-100.56,9.53-14.51,1.23-29.12-1.06-43.31,2.35-12.15,2.91-24.19,8.84-36.22,12.66-29.89,9.51-52.49,34.49-85.59,35.66-35.97,1.28-71.71,6.18-107.76,6.15-21.06-.02-42.31.92-63.24-1.65-14.56-1.78-26.89-8.47-41.08-11.33-19.3-3.88-40.28.14-59.24,4.46-28.84,6.58-58.76,11.53-88.42,7.98-12.36-1.48-23.57-7.61-35.78-8.77-15.98-1.52-32.79.7-48.85.07-11.54-.46-22.32-2.03-33.57-4.33-8.67-1.78-17.42-.16-26.05-1.87-17.29-3.43-36.48-10.67-51.96-18.65-8.05-4.15-14.16-8.46-20.76-14.41-3.18-2.87-5.27-3.64-9.15-4.86-8.06-2.54-15.06-2.67-23.49-2.9-10.56-.3-20.89-2.66-31.47-3.13-41.49-1.83-86.81,2.4-126.64-12.21-8.44-3.1-10.56-5.92-18.27-3.99-5.1,1.27-9.46,1.58-14.78,1.53-8.17-.08-18.07-1.47-26.05.42-10.98,2.6-21.05,8.98-32.34,10.94-15.21,2.64-32.15.44-47.49.49-45.25.17-88.93-5.94-133.66-12.02-18.71-2.54-36.41-3.48-54.44-8.62-12.13-3.46-22.31-11.49-34.12-14.83-13-3.67-24.27-5.4-36.22-11.89-6.59-3.58-12.6-5.81-19.69-8.21-5.09-1.72-8.81-5.25-13.86-6.44-7.59-1.78-16.58.15-24.34-.03-11.1-.25-21.64-3.18-32.8-3.08-16.71.15-32.88-2.7-49.33-3.02-9.73-.19-19.95-.74-29.64.03-18.76,1.5-30.67,19.9-45.62,29.3-7.79,4.9-18.14,9.12-27.42,9.49-7.46.29-12.8-.78-19.54,1.21-14.92,4.41-28.78,8.83-44.66,10.1-12.48.99-34.84,4.22-45.76-4.59.32,2.11-26.76,7.01-30.87,7.66-23.05,3.63-44.58,16.53-68.22,17.45l-16.94-.94c-1.86-2.87-4.18-5.26-6.97-7.16-4.07-2.74-8.19-3.71-13.04-4.85-22.23-5.25-43.49-9.26-65.33-16.39-28.58-9.33-60.19-12.1-87.84-24.2-8.93-3.91-14.62-10.9-24.76-11.37-13.29-.61-26.85,2.47-40.14,3.16-21.82,1.14-43.02,6.08-64.67,9.07-30,4.14-61.45,4.97-91.64,1.56-12.2-1.38-27.62-8.32-40.24-8.09-11.31.21-23.22,8.67-33.66,12.15-21.84,7.29-43.2,17.21-66.04,20.82-11.65,1.84-23.13,5.93-34.98,6.19-11.65.26-20.76-2.05-31.67-6.14-5.47-2.05-11.55-3.87-16.18-7.34-7.88-5.9-10.84-6.47-21.05-5.43-18.21,1.86-35.56,5.69-52.99,11.22-12.6,4-23.28,9.2-36.61,11.98-11.12,2.32-22.14,5.3-33.28,7.39-14.49,2.71-30.17,8.43-44.77,8.91-6.84.22-17.77,1.58-24.75.05-4.07-.89-7.2-2.5-11.44-3.11-14.89-2.16-30.34-3.6-44.95-7.65-11.5-3.19-19.88-7.1-31.84-7.2-4.53-.04-9.05-.08-13.56.32-14.43,1.28-29.05,3.1-42.69,7.74-15.93,5.41-29.37,15.52-44.17,23.34-4.15,2.19-8.3,4.39-12.44,6.58v6.24c56.27,15.51,110.72,47.2,148.74,85.22Z"/>
      <g>
        <path class="cls-6" d="M123.68,1151.79c16.64-1.2,34.12-3.41,50.88-3.38,11.68.02,23.42,2.05,35.07,2.78,33.72,2.1,67.56-.64,101.28.88,16.14.73,31.93,2.88,48.1,2.78,28.49-.18,56.99-.16,85.48-.04,41.87.18,83.5-3.1,125.2-6.56,60.27-5.01,118.03-17.92,177.09-29.67,14.19-2.82,27.9-6.26,42.32-8.3,7.35-1.04,16.16-3.8,23.57-3.25,12.22.9,25.6,7.37,37.35,11.09,23.76,7.52,46.94,13.13,71.51,17.49,18.95,3.36,37.45,9.02,56.71,9.73,28.69,1.07,57.78-4.3,86.16-8.38,58.13-8.36,116.09-3.63,174.51-8.59,35.58-3.02,72.77-6.28,107.84-13.14,31.15-6.09,61.64-16.05,93.01-20.8,16.72-2.54,34.21-4.66,51.1-2.83,20.27,2.19,38.73,12.53,58.38,17.42,44.51,11.07,90.6,21.52,136.26,26.42,14.77,1.58,29.83.11,44.42,2.69,27.64,4.88,54.01,12.55,82.31,13.59,27.47,1.01,54.52.34,81.76-3.3,33.24-4.44,67.39-8.47,100.43-14.25,29.59-5.17,58.86-8.48,88.86-10.82,13.37-1.04,26.52-1.29,39.86.26,14.14,1.64,26.15,6.3,39.86,10.25,75.22,21.64,153.9,21.13,230.72,9.3,25.72-3.96,51.17-9.64,76.32-16.22,11.65-3.05,24.02-2.75,36.07-4.69,18.26-2.94,35.95-3.08,54.39-2.96,35.06.22,69.52.21,104.42-3.32,44.11-4.47,89.72-15.65,134.23-15.14,50.6.58,101.32,8.96,151.8,12.69,59.22,4.38,118.58,4.4,177.74,9.37,51.1,4.29,103.4,9.59,154.66,7.43,50.35-2.13,101.69-7.83,151.22-17.15,16.76-3.15,31.46-7.6,47.95-8.92,22.67-1.82,45.83-11.77,67.77-17.63,12.22-3.26,25.2-8.67,37.54-10.89,2.67-.48,3.75-1.32,6.09-1.02.35.26.7.51,1.05.77,5.55,5.25,12.04,8.81,19.47,10.68,36.95,14.68,84.17,11.91,123.71,14.27,49.3,2.95,98.43,4.15,146.71,14.55,22.64,4.87,46.17,4.79,69.24,4.64,34-.22,65.48-10.32,99.07-13.95,62.19-6.73,124.9-9.59,186.34-22.5,17.58-3.69,34.55-10.36,52.61-10.98,19-.65,38.35-4.64,57.31-2.49,16.42,1.86,35.16,8.43,50.6,11.79,22.04,4.79,44.54,8.13,66.43,13.59,41.73,10.4,83.36,19.14,125.92,25.84,59.47,9.37,119.05,15.54,179.27,16.11,35.23.33,70.14.7,105.32,2.19,24.58,1.04,48.64,6.23,73.16,7.03,8.79.29,21.91-2.74,30.15-.62,4.46,1.15,3.34,1.35,6.41,3.69,4.12,3.15,4.74,7.15,10.44,9.26,14.72,5.43,34.32,1.95,47.9-1.47,19.24-4.85,38.36-12.21,56.08-21.01,4.94-2.45,9.89-4.91,14.83-7.36,5.09-4.08,10.31-7.99,15.66-11.72,7.16-2.55,12.47,1.81,19.95,3.86,14.67,4.02,32.08,3.32,47.14,4.68V0H.4v1152.49c.64.05,1.28.1,1.93.14,40.84,2.96,80.41,2.1,121.35-.85Z"/>
        <path class="cls-15" d="M5198.7,1696.32v-570.78c-15.07-1.36-32.47-.66-47.14-4.68-7.48-2.05-12.8-6.41-19.95-3.86-5.34,3.74-10.56,7.64-15.66,11.72-4.94,2.45-9.89,4.91-14.83,7.36-17.72,8.8-36.84,16.16-56.08,21.01-13.58,3.42-33.18,6.9-47.9,1.47-5.71-2.1-6.32-6.11-10.44-9.26-3.06-2.34-1.94-2.55-6.41-3.69-8.25-2.12-21.37.9-30.15.62-24.51-.8-48.57-5.99-73.16-7.03-35.18-1.49-70.1-1.85-105.32-2.19-60.22-.57-119.8-6.74-179.27-16.11-42.55-6.7-84.19-15.45-125.92-25.84-21.89-5.45-44.38-8.8-66.43-13.59-15.45-3.36-34.19-9.93-50.6-11.79-18.95-2.14-38.3,1.84-57.31,2.49-18.06.62-35.03,7.29-52.61,10.98-61.44,12.91-124.15,15.78-186.34,22.5-33.58,3.63-65.06,13.73-99.07,13.95-23.07.15-46.61.24-69.24-4.64-48.28-10.4-97.41-11.6-146.71-14.55-39.54-2.37-86.76.41-123.71-14.27-7.43-1.87-13.92-5.43-19.47-10.68-.35-.26-.7-.51-1.05-.77-2.34-.3-3.42.54-6.09,1.02-12.34,2.23-25.32,7.63-37.54,10.89-21.94,5.86-45.09,15.81-67.77,17.63-16.49,1.32-31.18,5.77-47.95,8.92-49.52,9.32-100.87,15.02-151.22,17.15-51.26,2.17-103.55-3.13-154.66-7.43-59.16-4.97-118.52-5-177.74-9.37-50.48-3.73-101.2-12.11-151.8-12.69-44.51-.51-90.12,10.67-134.23,15.14-34.9,3.53-69.35,3.54-104.42,3.32-18.44-.11-36.14.03-54.39,2.96-12.05,1.94-24.42,1.64-36.07,4.69-25.14,6.58-50.6,12.26-76.32,16.22-76.82,11.82-155.5,12.33-230.72-9.3-13.71-3.94-25.72-8.61-39.86-10.25-13.34-1.54-26.49-1.3-39.86-.26-30,2.34-59.28,5.65-88.86,10.82-33.04,5.77-67.19,9.81-100.43,14.25-27.24,3.64-54.29,4.31-81.76,3.3-28.3-1.04-54.67-8.71-82.31-13.59-14.59-2.58-29.65-1.1-44.42-2.69-45.66-4.9-91.75-15.35-136.26-26.42-19.65-4.89-38.11-15.23-58.38-17.42-16.9-1.83-34.38.3-51.1,2.83-31.37,4.76-61.86,14.72-93.01,20.8-35.07,6.85-72.26,10.11-107.84,13.14-58.42,4.96-116.38.23-174.51,8.59-28.38,4.08-57.47,9.44-86.16,8.38-19.27-.72-37.77-6.37-56.71-9.73-24.56-4.36-47.74-9.97-71.51-17.49-11.75-3.72-25.13-10.19-37.35-11.09-7.41-.55-16.22,2.21-23.57,3.25-14.42,2.03-28.13,5.47-42.32,8.3-59.06,11.75-116.82,24.66-177.09,29.67-41.71,3.47-83.34,6.75-125.2,6.56-28.49-.12-56.99-.14-85.48.04-16.17.1-31.96-2.05-48.1-2.78-33.72-1.52-67.56,1.22-101.28-.88-11.65-.73-23.39-2.76-35.07-2.78-16.76-.03-34.24,2.19-50.88,3.38-40.94,2.94-80.51,3.81-121.35.85-.64-.05-1.28-.09-1.93-.14v543.83h5198.3Z"/>
      </g>
      <path class="cls-12" d="M5198.39,1562.07v-332.46s-40.54-1.98-56.79-1.85c-33.41.28-66.5-3.57-99.86-3.09-24.8.36-49.11,5.17-73.78,6.33-27.31,1.29-54.19,2.68-81.56,2.68-50.87,0-102.2-2.36-152.77,4.02-27.95,3.53-55.95,6.99-83.93,10.26-18.75,2.19-36.88,2.3-55.48,4.17-57.48,5.76-116.3,2.14-174.08,2.32-67.01.21-134.06-4.74-200.96-8.27-96.32-5.09-192.66-4.45-289.04-1.47-119.4,3.7-238.83,10.77-358.29,12.42-141.61,1.96-282.96-14.78-424.51-17.15-89.22-1.5-178.73-2.04-267.93.14-62.19,1.52-124.39,5.81-186.62,5.55-21.48-.09-42.37,1.27-63.78,2.53-11.02.65-21.61,3.07-32.55,3.7-51.39,3-102.9,2.83-154.36,2.63-49.77-.2-99.75-3.23-149.42-6.15-36.7-2.16-73.54-2.34-110.15-5.74-48.22-4.49-96.98-6.92-145.39-8.43-48.8-1.52-97.41,1.28-146.18,2.19-90.41,1.68-180.98.25-271.41.25-20.22,0-40.45,0-60.67,0-8.42,0-17.18-.81-25.52.66-26.59,4.69-52.01,8.38-79.13,8.23-90.72-.5-180.89,5.68-271.69,5.96-23.82.07-47.13-2.46-70.84-3.18-21.09-.64-42.33.1-63.42.22-37.66.21-75.78-4.46-113.47-5.7-48.38-1.6-96.87-2.99-145.28-2.85-31.43.09-60.43,5.8-89.54,17.35-27.85,11.05-54.97,18.46-85.14,19.63-48.02,1.87-96.06,0-144.11,2.21-13.09.6-26.18,1.11-39.29,1.08-29.54-.07-58.71-1.77-88.22-2.74-21.32-.7-42.81,1.25-63.97-1.98-7.85-1.2-15.42-3.19-23.2-4.74-15.56-3.11-31.4-4.75-47.05-7.31-14.42-2.36-28.51-5.76-42.64-9.08.31,18.68.07,37.41-.78,56.21-2.8,62.24-10.77,124.21-20.13,185.76-3.34,21.95-7.02,43.84-10.94,65.7h5063.83Z"/>
      <path class="cls-21" d="M5198.39,1589.48v-332.46s-40.54-1.98-56.79-1.85c-33.41.28-66.5-3.57-99.86-3.09-24.8.36-49.11,5.17-73.78,6.33-27.31,1.29-54.19,2.68-81.56,2.68-50.87,0-102.2-2.36-152.77,4.02-27.95,3.53-55.95,6.99-83.93,10.26-18.75,2.19-36.88,2.3-55.48,4.17-57.48,5.76-116.3,2.14-174.08,2.32-67.01.21-134.06-4.74-200.96-8.27-96.32-5.09-192.66-4.45-289.04-1.47-119.4,3.7-238.83,10.77-358.29,12.42-141.61,1.96-282.96-14.78-424.51-17.15-89.22-1.5-178.73-2.04-267.93.14-62.19,1.52-124.39,5.81-186.62,5.55-21.48-.09-42.37,1.27-63.78,2.53-11.02.65-21.61,3.07-32.55,3.7-51.39,3-102.9,2.83-154.36,2.63-49.77-.2-99.75-3.23-149.42-6.15-36.7-2.16-73.54-2.34-110.15-5.74-48.22-4.49-96.98-6.92-145.39-8.43-48.8-1.52-97.41,1.28-146.18,2.19-90.41,1.68-180.98.25-271.41.25-20.22,0-40.45,0-60.67,0-8.42,0-17.18-.81-25.52.66-26.59,4.69-52.01,8.38-79.13,8.23-90.72-.5-180.89,5.68-271.69,5.96-23.82.07-47.13-2.46-70.84-3.18-21.09-.64-42.33.1-63.42.22-37.66.21-75.78-4.46-113.47-5.7-48.38-1.6-96.87-2.99-145.28-2.85-31.43.09-60.43,5.8-89.54,17.35-27.85,11.05-54.97,18.46-85.14,19.63-48.02,1.87-96.06,0-144.11,2.21-13.09.6-26.18,1.11-39.29,1.08-29.54-.07-58.71-1.77-88.22-2.74-21.32-.7-42.81,1.25-63.97-1.98-7.85-1.2-15.42-3.19-23.2-4.74-15.56-3.11-31.4-4.75-47.05-7.31-14.42-2.36-28.51-5.76-42.64-9.08.31,18.68.07,37.41-.78,56.21-2.8,62.24-10.77,124.21-20.13,185.76-3.34,21.95-7.02,43.84-10.94,65.7h5063.83Z"/>
      <path class="cls-18" d="M5198.39,1628.82v-332.46s-40.54-1.98-56.79-1.85c-33.41.28-66.5-3.57-99.86-3.09-24.8.36-49.11,5.17-73.78,6.33-27.31,1.29-54.19,2.68-81.56,2.68-50.87,0-102.2-2.36-152.77,4.02-27.95,3.53-55.95,6.99-83.93,10.26-18.75,2.19-36.88,2.3-55.48,4.17-57.48,5.76-116.3,2.14-174.08,2.32-67.01.21-134.06-4.74-200.96-8.27-96.32-5.09-192.66-4.45-289.04-1.47-119.4,3.7-238.83,10.77-358.29,12.42-141.61,1.96-282.96-14.78-424.51-17.15-89.22-1.5-178.73-2.04-267.93.14-62.19,1.52-124.39,5.81-186.62,5.55-21.48-.09-42.37,1.27-63.78,2.53-11.02.65-21.61,3.07-32.55,3.7-51.39,3-102.9,2.83-154.36,2.63-49.77-.2-99.75-3.23-149.42-6.15-36.7-2.16-73.54-2.34-110.15-5.74-48.22-4.49-96.98-6.92-145.39-8.43-48.8-1.52-97.41,1.28-146.18,2.19-90.41,1.68-180.98.25-271.41.25-20.22,0-40.45,0-60.67,0-8.42,0-17.18-.81-25.52.66-26.59,4.69-52.01,8.38-79.13,8.23-90.72-.5-180.89,5.68-271.69,5.96-23.82.07-47.13-2.46-70.84-3.18-21.09-.64-42.33.1-63.42.22-37.66.21-75.78-4.46-113.47-5.7-48.38-1.6-96.87-2.99-145.28-2.85-31.43.09-60.43,5.8-89.54,17.35-27.85,11.05-54.97,18.46-85.14,19.63-48.02,1.87-96.06,0-144.11,2.21-13.09.6-26.18,1.11-39.29,1.08-29.54-.07-58.71-1.77-88.22-2.74-21.32-.7-42.81,1.25-63.97-1.98-7.85-1.2-15.42-3.19-23.2-4.74-15.56-3.11-31.4-4.75-47.05-7.31-14.42-2.36-28.51-5.76-42.64-9.08.31,18.68.07,37.41-.78,56.21-2.8,62.24-10.77,124.21-20.13,185.76-3.34,21.95-7.02,43.84-10.94,65.7h5063.83Z"/>
      <rect class="cls-10" x=".31" y="1365.76" width="5198.39" height="330.4"/>
      <g>
        <path class="cls-14" d="M1292.24,1458.82c93.57,65.18,46.52,168.49-193,169.98-240.3,1.5-325.97-101.4-256.13-167.69,40.39-38.33,130.35-59.59,214.02-59.98,83.58-.39,180.9,19.93,235.1,57.69ZM1058.93,1406.33c-76.73.36-158.74,21.56-194.67,55.96-61.47,58.85,18.61,142.57,233.76,141.23,214.45-1.34,259.11-84.46,175.51-142.32-48.96-33.88-137.96-55.23-214.59-54.87Z"/>
        <path class="cls-14" d="M1222.58,1485.88c21.84,26.39-31.57,51.91-122.39,52.68-90.32.76-161.43-23.47-159.58-49.85,1.58-22.62,57.74-39.33,125.88-40.09,68.43-.77,137.39,14.67,156.09,37.26ZM1056.58,1465.4l14.12,16.67-44.31,2.52,10.85,15.27,39.8-3.42,16.55,19.2,34.61-2.26-19.66-18.92,41.85-1.92-18.6-14.91-37.16,1.71-13.24-14.5-24.81.55Z"/>
      </g>
      <path class="cls-7" d="M691.86,1043.76l-691.29-.63-.17,184.29c42.21-2.71,84.6-1.64,126.86-.29,46.41,1.47,92.74,2.29,139.17,1.73,46.86-.57,93.52-3.45,140.33-5.42,11.54-.49,23.09-.92,34.63-1.42,8.78-.38,17.68-.4,26.4-1.55,3.29-.43,6.58-.9,9.89-1.16,1.6-.13,3.21-.22,4.82-.19.77.02,1.53.08,2.3.13,6.19.39,22.41,2.47,28.35,3.82,9.54,2.16,18.94,6.04,27.12,11.34,4.26,2.76,17.83,13.28,21.47,16.62.33.3.59.65.91.95,13.35,12.64,24.07,32.6,28.92,50.1.37,1.33.6,2.64.83,3.99,1.69,9.76,3.44,20.31,3.92,30.23.15,3.03-.06,6.07-.39,9.07-1.74,15.71-3.61,31.53-7.41,46.9-2.33,9.42-5.3,18.65-7.32,28.12-1.21,12.18-2.1,24.38-2.81,36.6-1.93,33.09-2.27,66.17-3.24,99.3-.54,18.26-2.77,36.77-2.78,55.15,2.69,4.66,4.89,9.61,6.6,14.84,1.69,2.91,3.06,5.9,4.14,8.98l138.77-270.02.25-275.42-30.27-46.07Z"/>
      <path class="cls-17" d="M721.6,1063.67c-43.06-50.27-91.79-9.29-148.33,151.28-4.59,13.04-6.94,26.76-6.94,40.58v412.19s155.27-302.8,155.27-302.8v-301.24Z"/>
      <path class="cls-1" d="M603.45,1595.33v-337.99c30.16-127.17,81.03-189.38,100.41-157.49v299.44s-100.41,196.04-100.41,196.04Z"/>
      <polygon class="cls-8" points="703.86 1399.29 603.45 1399.29 603.45 1595.33 703.86 1399.29"/>
      <g class="cls-16">
        <g>
          <line class="cls-3" x1="1488.1" y1="1475.64" x2="1508.1" y2="1475.64"/>
          <line class="cls-5" x1="1547.89" y1="1475.64" x2="2880.78" y2="1475.64"/>
          <line class="cls-3" x1="2900.67" y1="1475.64" x2="2920.67" y2="1475.64"/>
        </g>
      </g>
      <g class="cls-16">
        <g>
          <line class="cls-4" x1="1468.1" y1="1581.93" x2="1488.1" y2="1581.93"/>
          <line class="cls-2" x1="1528.17" y1="1581.93" x2="2950.64" y2="1581.93"/>
          <line class="cls-4" x1="2970.67" y1="1581.93" x2="2990.67" y2="1581.93"/>
        </g>
      </g>
      <path class="cls-13" d="M1802.23,594.74c-3.85-12.2-14.87-19.01-27.08-20.32-9.25-.99-19.07,1.7-28.18,3.15-3.1.49-6.2.99-9.3,1.48-.33-4.28-2.36-8.29-5.67-11.48.4-1.41.59-2.85.53-4.26-.43-9.97-7.41-15.84-16.84-16.9-14.43-1.62-29.89-2.54-43.83,2.37-7.61,2.68-14.77,6.66-20.44,12.5-7.08,7.31-9.3,16.99-5.97,25.89-6.52-.15-12.91-1.65-19.44-1.63-9.57.03-19.12,3.05-25.77,10.18-6.54,7.01-9.89,16.73-7.59,26.2,2.38,9.77,11.15,17.01,20.75,19.12,16.76,3.68,34.56-.36,50.44-5.9,7.36-2.57,14.6-5.49,21.99-7.97,3.39-1.14,6.82-2.19,10.29-3.07,1.73-.44,3.48-.83,5.23-1.18.94-.18,1.94-.41,2.91-.54-.28.07.39.11.99.11.14.08.3.16.48.27,1.47.86,2.9,1.77,4.39,2.6,3.86,2.14,7.97,3.89,12.09,5.45,7.43,2.82,15.5,4.17,23.41,4.66,14.62.91,32.04-2.33,44.33-10.71,9.84-6.7,16.07-18.05,12.28-30.05Z"/>
    </g>
  </g>
</svg>