<?xml version="1.0" encoding="UTF-8"?>
<svg xmlns="http://www.w3.org/2000/svg" width="550.57" height="210.36" viewBox="0 0 550.57 210.36">
  <defs>
    <style>
      .cls-1 {
        fill: #c51c70;
      }

      .cls-2 {
        fill: none;
      }

      .cls-3 {
        fill: #3d3844;
      }

      .cls-4 {
        fill: #651365;
      }

      .cls-5 {
        fill: #8d197d;
      }

      .cls-6 {
        fill: #8c878e;
      }

      .cls-7, .cls-8 {
        fill: #695f68;
      }

      .cls-9 {
        fill: #18111a;
      }

      .cls-10 {
        fill: #606060;
      }

      .cls-11 {
        fill: #3c1147;
      }

      .cls-12 {
        isolation: isolate;
      }

      .cls-13 {
        fill: #a3117a;
      }

      .cls-14 {
        fill: #cf4b98;
      }

      .cls-15 {
        fill: #c0b6b6;
      }

      .cls-8 {
        mix-blend-mode: multiply;
        opacity: .78;
      }

      .cls-16 {
        fill: #524f5a;
      }
    </style>
  </defs>
  <g class="cls-12">
    <g id="Layer_2">
      <g>
        <g>
          <path class="cls-3" d="M366.16,172.17c.02-.1.05-.2.07-.3.49-2.34,1.6-5.55.16-7.74-.58-.88-2.37-1.24-2.67.14-.09.43-.17.86-.23,1.29-.25.04-.5.12-.7.27-.21.13-.4.28-.58.46-.66.58-.61,1.34-.21,1.87-.11.53-.22,1.06-.32,1.6,0-.09.01-.18.02-.26.05-1.06,0-2.11-.1-3.17-.05-.5,0-1.22-.2-1.69-.19-.49-.52-.63-.81-1.08-.14-.22-.44-.22-.55.03-.22.47-.53.67-.67,1.16-.14.49-.02,1.18-.04,1.71-.05,1.42-.06,2.85-.25,4.27-.3,2.32-.99,4.36-.14,6.64.15.39.66.74,1.08.74,1.58-.03,3.16-.05,4.74-.08.68-.01,1.47-.46,1.46-1.25-.02-1.53-.04-3.06-.07-4.59Z"/>
          <path class="cls-6" d="M377.58,184.39c-1.77-2.59-3.42-5.27-5.17-7.88.1-.18.18-.38.23-.59.06-.23-.03-.43-.25-.53-1.81-.8-4,.64-5.65,1.39-1.25.57-.98,2.27.15,2.77,1,.44,1.63,1.9,2.31,2.71.83.98,1.76,1.87,2.7,2.73,1.86,1.69,3.8,3.21,5.25,5.3.42.6,1.35.69,1.96.41,3.23-1.46-.48-4.76-1.53-6.3Z"/>
          <path class="cls-3" d="M371.21,180.83c-.02-.15-.08-.3-.21-.43-1.35-1.41-2.81-2.79-4.51-3.75-.09-.05-.19-.07-.28-.06-.48-.28-1.07-.3-1.55.23-.25.27-.49.54-.74.81-1.68.79-3.28,1.87-4.54,3.2-.6.63-.91,1.36-.76,2.25.13.7.28,1.65.59,2.29.99,2.01,3.32,1.02,4.96.54,2.35-.69,4.67-1.48,6.96-2.36,1.33-.51,1.01-2.05.08-2.7Z"/>
          <path class="cls-3" d="M377.87,188.76c-1.77-1.35-3.27-2.93-4.56-4.72,0-.23-.12-.49-.36-.56-.03,0-.05,0-.07-.02-.91-.94-2.79-.19-2.87,1.12-.72.47-1.45.95-2.08,1.51-1.6,1.41-.33,2.9.75,4.13.68.77,1.38,1.53,2.11,2.25.69.69,1.57,1.8,2.55,2.09,1.87.55,3.54-1.98,4.67-3.09.81-.79.78-2.01-.14-2.71Z"/>
          <path class="cls-3" d="M360.91,182.23c-1-.65-2.03-1.3-3.15-1.72-.52-.19-1.07-.34-1.62-.41-.32-.05-.64-.07-.96-.07-.07-.02-.14-.03-.2-.04-.11-.27-.28-.49-.48-.66-.05-.55-.32-1.04-.95-1.41-1.28-.75-2.74.34-2.55,1.58-.17.24-.47.56-.56.7-.27.41-.53.82-.8,1.23-.53.82-1.08,1.63-1.59,2.46-1.03,1.67-2.01,3.36-3,5.05-.62,1.06-.15,2.94,1.37,2.88,3-.13,6.02,1.05,8.91-.28,1.36-.63,1.76-1.59,2.49-2.81.83-1.4,2.07-2.53,3.22-3.66.8-.78.87-2.17-.14-2.84ZM357.04,184.14c-.1.11-.2.22-.3.33-.12-.24-.29-.45-.5-.62.1.02.19.05.29.08.17.06.34.13.51.2Z"/>
          <path class="cls-7" d="M357.6,189.09c-1.17-.66-2.82-.5-4.12-.5-1.66,0-3.32-.05-4.94.31-1.46.33-1.73,2.49-.23,3,.98.33,2.01.54,3.04.68-.82.03-1.63.05-2.45.07-.62.02-1.38.2-1.7.81-.36.68-.54,1.19-.15,1.91.3.57.88,1.05,1.56,1.06,1.2.02,2.4.03,3.6.05.55.01,1.11.03,1.66.04.28,0,.55.01.83.02.23.04.39.06.47.05.91.75,2.33.42,3.04-.48,1.34-1.72,1.56-5.8-.61-7.02Z"/>
          <path class="cls-3" d="M352.96,195.25c-.12-1.12-.3-2.23-.52-3.33,0-.88.13-1.76-.4-2.53-.97-1.4-2.75-1.02-4.22-.69-.19.03-.39.07-.58.13-1.72.51-1.28,3.2.54,2.79.24-.05.51-.09.78-.14.28-.01.56.02.85.1.04,1.25.09,2.5.13,3.75.03.91.77,1.38,1.44,1.32.86.47,2.13-.11,1.98-1.41Z"/>
          <path class="cls-3" d="M395.38,192.68c-1.2-1.91-3.91-2.08-5.86-2.69-1.59-.5-3.13-1.12-4.67-1.77-1.09-.46-2.21-1.12-3.43-1.16-.98-.03-1.79.38-2.29,1.2-.45.34-.82.8-1.04,1.32-.16.38-.24.74-.32,1.07-.35.31-.76.57-1.16.78-.53.28-.59.85-.36,1.25-.65.5-1.21,1.07-1.43,1.91-.78,2.96,3.53,3.4,5.47,3.97,2.74.81,5.58,1.66,8.4,2.18,2.3.42,4.42-.15,5.79-2.12,1.15-1.65,2.06-4.09.9-5.94Z"/>
          <path class="cls-3" d="M348.43,183.55c-.13-.16-.32-.27-.55-.27-4.39.07-8.76,1.01-13.07,1.79-3.31.6-7,2.29-6.83,6.23.03.61.38,1.2,1.06,1.23,1.98.1,3.96.2,5.94.3,1.55.08,3.49.49,4.98-.05,1.5-.54,2.87-1.88,4.14-2.81l5.11-3.71c1.06-.77.39-2.58-.78-2.72ZM330.36,190.24c.04-.12.1-.24.16-.35.04.08.07.16.12.24.02.04.05.07.07.11-.12,0-.23,0-.35,0Z"/>
          <path class="cls-6" d="M360.65,145.16c-.2-.67-.7-1.14-1.4-1.26-.84-.15-1.44.32-2.06.81-1.31,1.05-2.59,2.14-3.87,3.22-.25.21-.36.48-.39.76-2.32,2.2-4.12,4.91-6.29,7.25-1.19,1.29-2.39,2.58-3.68,3.78-1.19,1.12-2.75,2.07-3.04,3.76-.1.61.51,1.36,1.14,1.34,1.73-.07,2.83-1.45,4.07-2.56,1.37-1.23,2.78-2.41,4.16-3.64,2.62-2.34,5.57-4.5,7.61-7.41,1.14-.21,2.11-1.42,2.7-2.32.66-1.01,1.41-2.51,1.05-3.74Z"/>
          <path class="cls-3" d="M361.73,178.81c-.69-.94-1.4-1.58-1.93-2.65-.61-1.22-1.31-2.39-2.1-3.5-1.26-1.75-2.8-3.3-4.5-4.62.97-1.17,1.98-2.3,3.04-3.39,1.25-1.28,2.39-2.29,3.04-3.97.1-.25-.14-.5-.39-.46-1.97.31-3.28,1.49-4.71,2.83-1.49,1.4-2.88,2.89-4.21,4.44-.52.6-.21,1.56.36,1.99,2.32,1.74,4.27,3.94,5.64,6.5,1.06,1.98,2.01,5.67,4.95,5.15,1.12-.2,1.43-1.5.81-2.33Z"/>
          <path class="cls-3" d="M368.8,163.36c.11-2.15.03-4.29-.21-6.43-.16-1.45-2.09-1.68-2.94-.82-.37-.02-.75,0-1.14.04-.55.04-1.09.08-1.64.13-.22-.13-.46-.22-.7-.2-.17,0-.34.02-.5.03-.03-.27-.06-.54-.11-.81-.24-1.31-2.19-1.48-2.61-.2-.48,1.44-.61,3.02-.76,4.52-.13,1.34-.57,3.24-.18,4.55.32,1.06,1.19,1.38,2.14,1.53-.03.41-.05.81-.08,1.22-.23,3.03-.52,6.06-.61,9.1-.07,2.45,3.6,2.76,3.81.3.29-3.41.37-6.83.49-10.25.86.08,1.73.17,2.59.25,1.12.11,1.78-.74,1.84-1.68.34-.27.57-.69.6-1.28Z"/>
          <path class="cls-3" d="M362.16,147.07c-.41-1.51-1.39-2.83-2.2-4.16-.86-1.41-1.69-2.85-2.56-4.25-1.76-2.82-3.89-5.61-6.42-7.77-2.1-1.79-5.39,1.15-4.06,3.47,1.57,2.74,3.69,5.33,5.76,7.71.98,1.12,1.95,2.22,2.87,3.39,1.02,1.3,1.89,2.81,3.18,3.85,1.46,1.18,3.93-.41,3.43-2.24Z"/>
          <path class="cls-7" d="M371.02,150.4c0-.78-.14-1.51-.38-2.18-.08-.62-.29-1.25-.64-1.83-.55-.92-1.29-1.58-2.15-1.99-1.84-1.33-5.12-1.35-6.96-.68-3.42,1.25-5.23,4.98-3.92,8.41,1.28,3.35,5.69,5.88,9.22,4.79,1.1-.34,1.94-.95,2.55-1.72,1.38-1.2,2.28-2.92,2.29-4.8Z"/>
          <path class="cls-3" d="M366.3,149.87c-.09-.45-.28-.84-.57-1.19-.16-.15-.33-.3-.49-.44-.38-.26-.81-.41-1.27-.45-.35-.04-.69,0-1.01.14-.33.08-.62.23-.87.47-.27.21-.47.48-.6.79-.18.29-.28.62-.3.97.01.23.03.46.04.69.09.45.28.84.57,1.19.16.15.33.3.49.44.38.26.81.41,1.27.45.35.04.69,0,1.01-.14.33-.08.62-.23.87-.47.27-.21.47-.48.6-.79.18-.29.28-.62.3-.97-.01-.23-.03-.46-.04-.69Z"/>
          <path class="cls-6" d="M367.57,145.16c-2.04-1.07-4.85-1.83-7-.79-1.12.54-.3,2.1.82,1.7.93-.33,4.36-.26,6.15.67.53.67.83,1.52.78,2.45-.02.43.57.68.82.29,1.08-1.69.04-3.49-1.57-4.33Z"/>
          <path class="cls-7" d="M366.54,158.94c-1.89-.27-3.79-.44-5.69-.62-2.92-.28-3.22,4.12-.35,4.51,1.89.26,3.78.53,5.68.71,2.98.27,3.27-4.18.36-4.6Z"/>
          <path class="cls-6" d="M364.81,164.98c-.07-.82-1.14-1.54-1.92-1.3-.13.04-.25.08-.37.13,0,0,0,0,0,0,0,0-.02,0-.03.01,0,0,0,0,0,0-.03.01-.07.02-.1.03-.2.07-.34.21-.44.38-.22.27-.38.62-.37.93.05,2.93-.48,5.88-.46,8.82.01,2.17,3.17,2.48,3.4.26.31-3.02.58-6.24.31-9.27Z"/>
          <path class="cls-7" d="M369.93,138.34c.21-1.11.47-2.22.71-3.32.53-2.49,1.27-4.97.98-7.54-.2-1.76-2.7-2.61-3.95-1.38-.71.7-2.03,1.2-2.95.54-.19-.19-.4-.37-.62-.54-1.04-.82-2.69-.42-3.42.62-.55.8-.53,1.65-.17,2.39-.01.03-.03.05-.05.08-.48,1.06-.82,1.8-.92,2.97-.09,1.09-.04,2.17.02,3.25.13,2.15.23,4.27-.09,6.41-.24,1.6,1.35,2.53,2.7,2.41,1.96-.17,3.91-.08,5.85.23,2.07.32,3.03-2.31,1.91-3.75-.46-.59-.13-1.71,0-2.37Z"/>
          <path class="cls-3" d="M371.24,130.78c.03-.8-.89-1.66-1.68-1.15-.03.02-.07.04-.1.06-.13.08-.27.19-.38.32-.14-.02-.29-.02-.42.01-1.6.43-2.63.07-4.08-.6-.88-.41-1.78-.63-2.73-.3-.23.08-.44.19-.62.31-.37-.14-.91.06-.94.54,0,.13-.03.26-.04.39-.09.24-.18.47-.27.71-.07.19-.08.37-.05.52-.03.11-.05.22-.07.34-.02.07-.05.13-.07.2-.08.18-.08.35-.04.49-.03.25-.05.51-.06.77-.02.59.38,1.02.95,1.11,1.55.25,3.1.54,4.66.73,1.12.14,2.43.46,3.55.31,1.26-.17,1.54-1.12,1.52-2.18,0,0,.02,0,.02-.01.93-.53.83-1.65.86-2.57Z"/>
          <path class="cls-7" d="M357.75,153.04c.07-.09.15-.18.22-.28.12-.16-.08-.42-.26-.3-.12.08-.23.15-.35.23-.48-.32-1.11-.36-1.62.16-2.53,2.54-5.22,4.91-7.99,7.19-.74.6-1.48,1.2-2.22,1.8-.32.26-.65.52-.97.77-1.17.92.32,2.62,1.5,1.75,3.99-2.95,7.78-6.12,11.58-9.3.71-.59.58-1.45.12-2.01Z"/>
          <path class="cls-6" d="M356.75,177.15c-2.4-1.81-3.98-4.46-5.77-6.82-2.02-2.66-4.32-5-6.77-7.26-1.02-.94-2.61.3-1.68,1.44,2.21,2.7,4.27,5.53,6.29,8.38,1.81,2.56,3.45,5.17,5.94,7.14,1.76,1.4,3.8-1.52,1.99-2.88Z"/>
          <path class="cls-7" d="M356.17,179.63s-.04-.05-.06-.08c-.09-.11-.19-.2-.29-.27-2.53-2.43-4.95-4.99-7.39-7.5-1.38-1.42-2.77-2.84-4.15-4.26-1.33-1.36-2.63-2.65-4.47-3.25-.4-.13-.87.21-.76.65.54,2.24,2.07,3.83,3.56,5.52,1.55,1.77,3.11,3.55,4.66,5.32,1.54,1.76,3.07,3.54,4.66,5.26.65.7,1.32,1.59,2.35,1.66.99.07,1.83-.5,2.21-1.39.24-.56.06-1.22-.31-1.67Z"/>
          <path class="cls-7" d="M346.25,165.1c.26-3.48-3.54-5.81-6.6-4.29-.75.37-1.33.92-1.75,1.57-.13.12-.25.26-.36.41-1.11,1.53-.9,3.69.38,5.02.3.46.69.86,1.18,1.19,1.54,1.05,3.69,1.16,5.16-.09.45-.38.81-.86,1.07-1.39.52-.7.85-1.56.91-2.42Z"/>
          <path class="cls-6" d="M341.38,163.17c-2.42-.18-2.72,3.58-.29,3.77,2.42.18,2.72-3.58.29-3.77Z"/>
          <path class="cls-7" d="M371.86,189.54c-.72-2.82-3.07-4.05-5.62-4.27-2.22-1-5.24-.84-7.17.18-3.86,2.04-5.13,7.09-2.76,10.73,1.12,1.72,2.87,2.81,4.76,3.19,2.42,1.38,5.68.58,7.78-1.18,2.41-2.02,3.79-5.54,3-8.65Z"/>
          <path class="cls-6" d="M365.64,191.83c-.05-.32-.17-.6-.37-.85-.15-.28-.36-.5-.63-.67-.36-.25-.76-.39-1.19-.42l-.65.04c-.42.08-.79.26-1.11.54-.14.15-.28.31-.41.46-.37.49-.52,1.23-.39,1.83.04.21.11.41.2.6.13.29.32.53.57.72.22.23.48.4.79.49.31.13.63.16.96.12.32.01.63-.06.92-.22.38-.19.69-.45.93-.8l.29-.56c.15-.42.18-.85.1-1.28Z"/>
          <path class="cls-7" d="M392.01,202.61c0-1.14.3-2.94-.2-4-.47-.97-1.74-1.47-2.6-2.06-1.9-1.31-3.66-2.82-5.54-4.15-1.64-1.15-3.95-2.41-6.04-1.96-.69.15-1.25.5-1.73.97-3.9.63-7.59,6.73-3.93,9.46,1,.75,2.26.92,3.45,1.13,1.53.27,3.06.54,4.59.81,3.25.57,6.5,1.14,9.75,1.72,1.06.19,2.25-.88,2.25-1.93Z"/>
          <path class="cls-3" d="M391.41,201.77c-.75-.49-1.87-.11-2.73-.2-1.13-.12-2.23-.43-3.32-.73-2.14-.59-4.3-1.11-6.5-1.42-1.14-.16-2.29-.24-3.44-.31-.76-.04-1.75-.01-2.46-.36-2.1-1.04.22-4.33.75-5.75.17-.46-.51-.83-.77-.4-1.12,1.86-3.21,3.55-2.97,5.94.22,2.24,2.11,3.35,4.17,3.57.62.06,1.24.12,1.86.17,1.15.39,2.34.69,3.46,1.01,2.08.59,4.21,1.02,6.33,1.45,1.6.33,3.99,1.32,5.49.27,1.04-.72,1.3-2.5.14-3.26Z"/>
          <path class="cls-6" d="M389.1,196.83c-2.2-1.16-4.41-2.3-6.63-3.41-1.42-.71-3.94-2.08-5.37-.79-.2.18-.22.54.04.69.74.44,1.59.44,2.4.74.99.35,1.9.88,2.82,1.38,1.86,1.02,3.73,2.03,5.61,3.02,1.12.59,2.26-1.04,1.13-1.63Z"/>
          <path class="cls-6" d="M368.74,188.31c-1.53-1.34-4.36-2.68-6.4-2.15-.26.07-.18.43.08.41,1.62-.12,3.8,1.3,4.97,2.4.66.62,1.23,1.47,1.19,2.42-.03.66-.2.97.02,1.62.12.35.62.47.92.32,1.98-1.02.42-3.96-.78-5.02Z"/>
          <path class="cls-7" d="M346.64,188.89c-2.86-.71-5.45-.13-8.12.98-2.59,1.08-5.07,2-7.79,2.68-1.03.26-2.05,1.35-1.69,2.5.07.23.15.45.24.66-.62,1.11.02,2.79,1.5,2.97.15.79.7,1.46,1.7,1.43,2.03-.05,4.05,0,6.07.16,1.95.16,3.87.58,5.81.76,2.73.25,5.04-1.51,5.4-4.03,0,0,0,0,.01,0,.91-.69,1.48-1.9,1.63-3.01.38-2.88-2.29-4.49-4.76-5.11Z"/>
          <path class="cls-3" d="M347.46,199.73c-1-.8-2.22-.62-3.45-.72-1.47-.12-2.93-.33-4.39-.51-2.83-.34-5.66-.68-8.49-1.03-1.76-.21-1.99,2.57-.21,2.76,2.83.29,5.67.58,8.5.87,1.37.14,2.74.25,4.1.43,1.32.18,2.55.67,3.79.06.77-.38.77-1.36.14-1.86Z"/>
          <path class="cls-3" d="M349.72,196.95c-.43.37-.84.75-1.24,1.14-.18-.16-.45-.22-.7-.1-2.06.92-4.31,1.37-6.52,1.8-.87.17-.58,1.37.25,1.31,1.93-.13,3.67-.65,5.41-1.36-.26.31-.52.62-.76.95-.17.23.09.52.32.46-.07.56.67.99,1.08.44.31-.41.55-.82.73-1.25.6-.94,1.29-1.8,2.09-2.61.46-.46-.16-1.23-.67-.79Z"/>
          <path class="cls-7" d="M394.37,192.35c-3.65-2.04-8.16-3.46-12.28-4.1-.61-.09-.76.82-.22,1.03,1.95.77,3.93,1.43,5.88,2.21,1.95.78,3.8,1.79,5.74,2.57,1,.4,1.85-1.16.88-1.71Z"/>
          <path class="cls-7" d="M346.41,183.73c-4.06.58-8.3,1.3-12.17,2.69-.43.16-.18.8.25.74,4.07-.63,8.09-1.58,12.17-2.16.82-.12.58-1.38-.25-1.27Z"/>
          <path class="cls-6" d="M343.91,190.39c-2.66.15-5.27.46-7.89.99-.81.16-.56,1.46.25,1.27,2.54-.61,5.1-1.09,7.69-1.43.45-.06.42-.85-.05-.82Z"/>
          <path class="cls-7" d="M365.84,176.26c-.96-.25-1.9-.57-2.8-1.01-.54-.26-1.19-.8-1.84-.77-.49.02-.98.29-1.43.66-.75-.06-1.22.54-1.3,1.2-.74.01-1.52.26-2.19.55-.3.13-.47.38-.53.66-.08.08-.14.17-.2.27-1.22.93-2.27,2.11-3.31,3.2-.69.73-.65,2.02.44,2.38,1.9.64,3.64,1.49,5.3,2.62.69.47,1.65.21,2.02-.52,1.09-.23,2-.82,2.77-1.66.74-.82,1.95-2.31,2.05-3.46.01-.15,0-.29-.04-.42.03-.03.05-.06.08-.09.42.02.83-.13,1.1-.53.41-.61.6-1.14.65-1.87.04-.48-.28-1.08-.78-1.21Z"/>
        </g>
        <g>
          <g>
            <path class="cls-3" d="M139.76,162.59c-2.58-1.59-5.38-2.46-8.43-2.41-.75.01-1.27.35-1.57.81-.49.11-.97.23-1.39.3-1.74.28-3.47.61-5.2.93-1.12.21-1.42,2.09-.18,2.37,3.26.75,6.52,1.52,9.79,2.24.05.01.09.02.14.03.91.43,1.86.77,2.86,1,1.17.27,1.94-.4,2.15-1.21.73-.38,1.37-.93,1.96-1.52.7-.69.81-1.97-.13-2.55Z"/>
            <path class="cls-3" d="M124.43,164.58c-.04-.13-.08-.26-.13-.39.01-.02.02-.05.03-.07.07-.01.15-.03.22-.04,1.32-.25,1.26-2.35-.14-2.4-4.23-.15-8.58.09-12.62,1.45-2.64.89-7.3,3.71-5.85,7.2.85,2.04,3.12,1.55,4.82,1.22,2.33-.46,4.67-.93,7-1.39,1.86-.37,4.08-.55,5.52-1.92.12-.12.23-.24.34-.37.09-.02.18-.03.27-.05,1.83-.32,1.75-2.46.53-3.24Z"/>
            <path class="cls-3" d="M161.73,160.27c-2.12-4.33-8.28-1.55-11.45-.38-.57.21-.92.57-1.08,1-.71.47-.86,1.5-.58,2.31-.51,1.09-.4,2.42.45,3.45,1.03,1.26,2.87,1.84,4.45,1.84.98,0,2.32-.25,3.19-.92,3.4-.43,6.72-3.84,5.03-7.3Z"/>
            <path class="cls-3" d="M180.4,169.93c-1.69-.86-3.6-1.8-5.51-1.95-1.19-.09-2.25.28-3.3.8-.01,0-.02,0-.03.01.03-.32.04-.64.03-.96-.03-1.2-.54-1.88-1.32-2.44-.72-.8-1.72-1.27-2.72-1.7-2.11-.89-5.94-2.29-7.86-.42-.24.23-.38.57-.33.9-.1.34-.14.7-.07,1.07.4,2.31,1.92,4.32,4,5.38.06.03.13.06.19.09-.57,1.14-.35,2.89.86,3.53,1.96,1.04,4.42.95,6.59,1.19,1.77.19,3.53.45,5.17,1.2,1.44.66,2.11,1.68,3.16,2.78,1.6,1.67,4.17,1.65,5.7-.11,3.27-3.75-1.38-7.78-4.54-9.38Z"/>
            <path class="cls-3" d="M152.69,115.69c-1.74-1.87-4.45-2.09-6.46-.5-7.3,5.81-14.46,11.74-22.07,17.14-2,1.41-2.12,4.85-.51,6.57,1.86,2,4.43,2,6.57.51,7.62-5.31,15.2-10.89,21.97-17.26,1.74-1.64,2.24-4.59.5-6.46Z"/>
            <path class="cls-3" d="M145.26,153.46c-1.32-1.05-2.63-2.13-3.92-3.23-.67-.58-1.34-1.16-2-1.75-.11-.1-.34-.31-.42-.39-.34-.31-.68-.63-1.01-.94-2.53-2.37-5.05-4.76-7.52-7.19-1.58-1.56-4.22-2.12-6-.47-1.7,1.59-1.99,4.17-.47,6,4.79,5.74,10.35,10.73,16.23,15.33,1.85,1.45,5,.84,6.24-1.13,1.37-2.17.83-4.68-1.13-6.24Z"/>
            <path class="cls-7" d="M125,131.61c-.76-.07-1.52.14-2.18.54-2.98.9-5.56,3.15-5.58,6.55-.02,3.83,2.72,7.04,6.63,7.23,3.8.18,7.13-2.73,7.45-6.52.32-3.89-2.4-7.42-6.32-7.79Z"/>
            <path class="cls-7" d="M130.31,160.37c-1.23-2.28-1.87-4.72-2.42-7.24-.27-1.23-.57-2.46-.89-3.68-.32-1.23-.59-2.7-1.27-3.78-.96-1.53-3.18-.85-2.99,1,.13,1.28.65,2.59.92,3.86.28,1.3.51,2.61.82,3.91.61,2.58,1.37,5.14,2.65,7.47,1.09,1.98,4.26.47,3.17-1.54Z"/>
            <path class="cls-7" d="M135.61,168.48c0-.39-.04-.78-.1-1.19-.16-1.12-1.37-2.01-2.5-1.96-.68-.33-1.43-.54-2.22-.65-1.73-.25-3.57-.2-5.32-.24-1.43-.03-2.89.05-4.18.72-1.54.81-2.92,2.79-2.07,4.55.76,1.56,2.87,1.97,4.4,2.34,1.73.41,3.5.69,5.28.71.97.01,1.96-.03,2.93-.14.95.59,2.26.54,3.12-.66.75-1.04.94-2.3.64-3.48Z"/>
            <path class="cls-7" d="M156.34,165.14c-.43-1.26-1.51-2.38-2.49-3.26-1.92-1.73-4.47-2.77-7.07-2.84-4.88-.13-9.94,2.75-11.15,7.71-.59,2.44-.15,5.08,1.63,6.95,1.73,1.82,4.02,2.57,6.41,3.04,2.38.46,4.99.74,7.31-.12,2.29-.85,4.13-2.98,4.19-5.49.02-.83-.13-1.62-.42-2.36.08-.03.15-.06.22-.1,1.28-.68,1.83-2.17,1.36-3.54Z"/>
            <path class="cls-7" d="M180.81,181.05c-.68-1.57-1.42-3.2-2.59-4.47-1.5-1.63-3.42-2.26-5.41-3.08-1.78-.74-3.44-1.72-5.06-2.76-.85-.54-1.68-1.11-2.51-1.67-.34-.23-.73-.45-1.04-.72-.13-.11-.2-.18-.25-.22-.48-1.9-2.63-2.51-4.09-1.67-.87-.52-2.01-.55-2.84.22-1.56,1.44-2.34,3.64-2.69,5.69-.16.97-.21,1.95-.3,2.92-.06.6-.08,1.23-.14,1.86-.34,1.58-.62,3.44.25,4.81.55.86,1.52,1.41,2.54,1.47,1.03.06,1.82-.43,2.74-.75,1.27-.44,2.37.08,3.49.66,1.69.88,3.34,1.54,5.27,1.67,1.63.11,3.28-.1,4.9-.3,1.46-.18,3.13-.51,4.59-.15,2.13.52,4.08-1.34,3.15-3.5Z"/>
            <path class="cls-7" d="M118.83,171.49c.19-.44.26-.93.15-1.38-.01-.06-.03-.12-.04-.17-.25-1.01-.95-1.5-1.91-1.71-.96-.2-2.12.35-3.05.6-1.12.3-2.25.6-3.37.91-2.24.62-4.71,1.21-6.78,2.26-1.81.91-1.75,3.72.23,4.41.88.3,1.68.87,2.56,1.19,1.02.37,2.09.6,3.15.77,1.98.32,4.02.35,6.02.31,1.27-.02,2.14-.75,2.35-2.02.26-1.51.78-3.15.75-4.68,0-.16-.03-.33-.06-.49ZM114,174.04c-.01.11-.02.22-.03.33-.31,0-.61,0-.92-.02.32-.1.63-.21.95-.31Z"/>
            <path class="cls-3" d="M123.48,163.84c-.06,0-.06.08,0,.09s.06-.08,0-.09Z"/>
            <path class="cls-3" d="M126.35,139.17c.11-.31.13-.64.05-.95,0-.02,0-.04,0-.06-.2-1.12-1.22-2.01-2.34-2.14-2.64-.3-3.95,3.22-1.98,4.86.91.76,2.41.9,3.39.19.39-.28.65-.81.66-1.31.1-.19.17-.38.23-.59Z"/>
            <path class="cls-7" d="M152.07,160.22c-1.22-3.27-2.43-6.55-3.89-9.71-.69-1.5-1.35-3.03-2.11-4.5-.62-1.2-1.14-3.27-2.52-3.73-.48-.16-1.15.07-1.29.61-.35,1.4.63,2.98,1.07,4.3.53,1.62,1.2,3.21,1.81,4.81,1.25,3.25,2.75,6.4,4.24,9.55.84,1.78,3.37.47,2.7-1.31Z"/>
            <path class="cls-7" d="M150.04,126.02c-4.53,3.26-9.13,6.45-13.84,9.44-.93.59-1.47,1.66-.95,2.74.45.92,1.68,1.45,2.64,1,0,0,0,0,0,0,.16.13.27.33.38.5.42.62.77,1.3,1.16,1.94.71,1.2,1.28,2.49,2.82,2.65.6.06,1.07-.34,1.31-.84.55-1.16-.1-2.22-.63-3.25-.47-.91-.91-1.84-1.44-2.72-.06-.1-.12-.2-.19-.29,3.95-2.46,7.66-5.26,11.06-8.47,1.68-1.59-.47-4.03-2.31-2.7Z"/>
            <path class="cls-6" d="M146.14,155.93c-2.22-2.53-4.54-4.96-6.97-7.27-1.15-1.1-2.34-2.15-3.55-3.18-.99-.84-2.18-2.24-3.48-2.48-.28-.05-.42.28-.34.5.25.65.73.96,1.25,1.43.62.56,1.23,1.13,1.83,1.71,1.16,1.1,2.3,2.23,3.42,3.36,2.25,2.28,4.4,4.66,6.45,7.12.75.91,2.17-.3,1.39-1.19Z"/>
            <path class="cls-6" d="M177.05,177.76c-3.18-1.61-6.33-3.25-9.46-4.95-1.45-.79-2.91-1.57-4.31-2.43-.68-.42-1.42-1.05-2.16-1.33-.53-.2-1.24-.13-1.8-.07-.42.05-.48.73-.06.84.77.19,1.46.26,2.18.62.73.37,1.44.82,2.14,1.24,1.41.85,2.79,1.74,4.19,2.6,2.8,1.72,5.63,3.4,8.47,5.05,1.11.64,1.97-.99.81-1.57Z"/>
            <path class="cls-6" d="M146.65,167.24c-.14-.19-.32-.37-.55-.52-.31-.2-.62-.31-.93-.34-.9-.27-1.87-.08-2.42.82-.01.02-.02.03-.03.05-.52.61-.81,1.44-.64,2.27.41,2.09,3.03,2.33,4.33,1.06.46-.24.83-.63,1.01-1.18.31-.94-.09-1.68-.77-2.16Z"/>
            <path class="cls-6" d="M129.14,135.65c-1.95-3.23-7.2-3.37-9.8-.98-.99.91.4,2.52,1.36,1.59.95-.92,2.15-1.35,3.47-1.26,1.45.09,2.26.82,3.24,1.78.78.76,2.38-.04,1.73-1.13Z"/>
            <path class="cls-6" d="M114.51,170.49c-1.75-.33-3.88.41-5.59.77-.95.2-1.89.4-2.84.6-.73.15-1.13.17-1.38.9-.04.12-.02.27.07.37.54.55.87.43,1.61.25,1.02-.25,2.04-.49,3.06-.74,1.65-.4,3.83-.67,5.23-1.7.2-.15.05-.42-.15-.46Z"/>
            <path class="cls-7" d="M148.01,117.36c-.14-.24-.3-.41-.51-.6-.51-.45-1.4-.3-1.89.1-5.82,4.78-11.73,9.51-17.73,14.07-.77.58.07,1.6.85,1.3,0,0,0,.01,0,.02,6.58-3.98,12.84-8.26,18.88-13.04.5-.39.72-1.28.39-1.85Z"/>
            <path class="cls-3" d="M142.06,136.85c-.11-.54-.34-1.01-.69-1.43-.56-.6-1.28-1.02-2.12-1.08-.43-.05-.83,0-1.22.17-.39.1-.74.28-1.05.56-.32.26-.56.57-.72.95-.22.35-.34.75-.36,1.18.02.28.03.56.05.83.11.54.34,1.01.69,1.43.56.6,1.28,1.02,2.12,1.08.43.05.83,0,1.22-.17.39-.1.74-.28,1.05-.56.32-.26.56-.57.72-.95.22-.35.34-.75.36-1.18-.02-.28-.03-.56-.05-.83Z"/>
            <path class="cls-7" d="M161.54,160.01s.02,0,.02-.01c-1.39-2.45-4.68-2.56-7.14-2.04-2.16.46-1.52,3.84.66,3.38,1.97-.42,3.94.17,5.9-.16.59-.1.77-.7.56-1.16Z"/>
            <path class="cls-7" d="M172.37,169.44c-.12-1.21-1.48-1.46-1.92-2.47-.49-1.14-.88-1.84-2.09-2.31-1.44-.56-3.02-.87-4.54-1.17-.3-.06-.37.4-.11.51,1.25.53,2.51,1.07,3.69,1.74.94.52,1.01,1.22,1.4,2.14.27.64.66.86,1.06,1.25,0,0,0,0,0,0-.4.88-.77,1.75-1.3,2.56-.77,1.18.9,2.29,1.77,1.23.71-.87,2.18-2.25,2.05-3.48Z"/>
            <path class="cls-7" d="M183.8,173.57c.02-.28-.1-.59-.35-.74-1.3-.77-2.38-1.68-3.82-2.21-1.31-.49-2.61-.72-4-.59-.27.03-.31.48-.04.54,1.52.36,3.05.76,4.41,1.54.59.34,1.15.73,1.66,1.17.59.5.73,1.07,1.56,1.04.28,0,.54-.17.56-.48,0-.09.01-.18.02-.27Z"/>
            <path class="cls-7" d="M114.78,163.65c-1.07-.18-2.26.3-3.27.65-1.24.43-2.41.99-3.54,1.65-.85.5-.16,1.89.67,1.37.98-.62,2-1.17,3.08-1.61,1.04-.43,2.29-.56,3.24-1.16.41-.26.31-.83-.17-.91Z"/>
            <path class="cls-6" d="M131.96,162.59c.17-1.25-1.64-1.97-2.37-.98-1.41.2-2.67.65-3.99,1.25-1.23.56-.79,2.39.48,2.51,1.37.14,2.73.28,4.1.41.72.07,1.47-.54,1.49-1.28.02-.66.21-1.26.3-1.92Z"/>
            <path class="cls-6" d="M124.44,169.2c-1.92-1.31-4.57-1.34-6.79-1.03-.87.12-1.41,1.06-1.27,1.88.41,2.38.77,4.78,1.25,7.15.15.74.79,1.32,1.55,1.38,1.16.1,2.29,0,3.41-.27.77-.19,1.24-.75,1.35-1.52.15-1,.59-3.78.24-5.75.79-.19.9-1.41.25-1.85Z"/>
            <path class="cls-6" d="M158.26,168.44c0-.26-.13-.51-.43-.63-1.07-.44-2.07-.64-3.22-.8-.42-.06-.87.18-1.1.52-2.3,3.34-4.13,7.05-5.6,10.82-.2.51,0,1.33.51,1.61,1.04.55,2.42,1.68,3.67,1.16,1.12-.47,1.84-2.17,2.43-3.15,1.58-2.62,2.86-5.4,3.87-8.29.15-.42.08-.88-.13-1.26Z"/>
            <path class="cls-6" d="M165.24,181.68c-3.02-.35-6.04-.69-9.07-1.01.13-.44.25-.89.36-1.36.05-.22.02-.43-.07-.62.2-1.05-.74-2.25-1.92-1.56-1.67.98-2.87,2.34-3.55,4.16-.31.82.2,1.66.97,1.91.22.36.6.63,1.17.67,1.74.23,3.49.4,5.23.54.9.11,1.8.23,2.7.35.27.03.5,0,.71-.11,1.07.07,2.15.13,3.22.18,2.04.11,2.27-2.93.25-3.17Z"/>
            <path class="cls-3" d="M180.19,182.18c-1.08-.32-1.89.87-1.22,1.77-.31-.42-2.34-.12-2.98-.16-1.15-.07-2.3-.21-3.44-.35-2.23-.27-4.46-.51-6.7-.68-4.27-.32-8.57-.28-12.85-.08-.09-1.22-.1-2.48-.59-3.59-.14-.33-.59-.32-.79-.06-1.07,1.4-.86,3.34-.69,5,.05.44.55.89.99.89,6.23-.05,12.5.3,18.69.97,2.76.3,5.9,1.02,8.66.46.95-.19,1.82-.81,2.09-1.77.27-.99-.15-2.09-1.18-2.39Z"/>
            <path class="cls-3" d="M124.91,177.01c-.14-1.67-.26-3.35-.54-5-.25-1.47-.3-2.67-1.5-3.63-.16-.13-.4-.06-.52.09-.89,1.23-.59,2.45-.52,3.92.06,1.14.15,2.28.23,3.41-1.24-.06-2.51-.08-3.69.15-1.66.32-1.16,2.65.21,2.67,1.54.28,3.27.1,4.84.04.97-.04,1.55-.68,1.47-1.65Z"/>
            <path class="cls-3" d="M125.63,173.29c-.18-1.37-.35-3.53-1.39-4.51-.31-.29-.98-.33-1.11.2-.32,1.36.33,2.93.41,4.33.08,1.27-.38,3.11.51,4.12.27.31.76.36,1.07.08,1.07-.94.68-2.95.51-4.23Z"/>
            <path class="cls-3" d="M135.55,165.86c-.04-.19-.33-.27-.43-.09-.11.18-.21.51-.31.91-.05-.16-.09-.32-.14-.47.21-.43.12-1.01-.37-1.25-.02-.05-.03-.11-.04-.16-.28-1.06-2.07-1.13-2.06.12,0,.1,0,.19.02.28,0,0,0,0,0,0,0,0,0,.01,0,.02.03.26.1.49.21.69.3.98.59,1.97.91,2.95.17.51.42,1.07.37,1.61-.44.92-1.04,1.46-1.93.94-.59-.35-1.35.37-.84.93,1.05,1.15,2.87.79,3.73-.45.5-.73.66-1.57.64-2.46.34-1.31.41-2.69.25-3.56Z"/>
            <path class="cls-3" d="M125.68,145.29c-.38.17-.8.33-1.22.35-.43.03-.84-.19-1.24.05-.23.14-.34.34-.3.61.02.21.02.3.09.48.05.12.21.14.31.09.79.58,2.36.32,3.06-.13.85-.55.27-1.89-.7-1.45Z"/>
            <path class="cls-3" d="M152.35,167.33c-1.25,1.5-2.69,2.95-3.71,4.62-.25.41-.61,1.54-1.08,2.53-.02.02-.03.05-.05.07-.61.47-1.39.74-2.42.73-2.25-.03-4.72-.47-6.19-2.33-.62-.78-1.07-1.69-1.22-2.67-.17-1.14.04-2.3-.16-3.44-.26-1.49-1.61-3.85-3.44-2.91-.46.24-.61.75-.42,1.22.2.51.61.77.9,1.22.33.51.4,1.12.42,1.72.05,1.29-.03,2.51.37,3.76.7,2.18,2.37,3.95,4.53,4.74,1.34.49,3.06.72,4.69.64.02.02.05.04.07.06.86.56,1.69.5,2.4.1.34-.18.66-.44.93-.76.07-.08.14-.17.21-.25,1.68-.96,2.44-2.86,3.02-4.69.11-.36-.03-.7-.27-.92.63-1.04,1.24-2.09,1.86-3.13.17-.29-.21-.55-.43-.3Z"/>
            <path class="cls-6" d="M162.68,165.82c-1.9-1.33-4.79-2.69-6.54-.35-.25.33-.03.76.28.92.09.17.25.31.5.37,1.67.41,3.44.54,5.15.76.94.12,1.34-1.19.6-1.7Z"/>
            <path class="cls-7" d="M144.33,123.71c-4.75,3.31-9.46,6.67-14.14,10.08-.63.46.17,1.4.79.93,4.58-3.51,9.13-7.07,13.63-10.68.22-.18-.06-.49-.28-.33Z"/>
            <path class="cls-3" d="M153.24,127.79l-.03-.14c-.02-.11-.11-.24-.23-.27-.86-.19-1.32.42-1.93.98-1.09,1-2.15,2.04-3.25,3.03-1.04.94-2.11,1.85-3.2,2.73-.54.44-1.1.9-1.7,1.25-.67.39-1.19.59-1.56,1.31-.25.49.05,1.18.68,1.05,1.13-.23,1.68-1.15,2.51-1.9.93-.84,1.89-1.63,2.81-2.47.92-.84,1.83-1.7,2.71-2.58.24-.24,2.39-2.38,2.53-2.7.01.03.03.06.04.09,0,.01.02.01.03.01.12,0,.23-.02.34-.03.16-.02.28-.21.24-.36Z"/>
            <path class="cls-3" d="M145.01,143.22c-.2-.9-1.06-1.64-1.45-2.49-.41-.89-.43-2.03-1.29-2.6-.4-.26-.82-.13-1.12.2-.73.81-.3,1.99.04,2.89.19.5.43.95.72,1.4.17.27.43.53.65.81-.28.1-.69.17-1.07.22-.51-1.29-1.23-2.43-2.24-3.43-.81-.8-2.14.3-1.36,1.16.93,1.03,1.57,2.19,1.91,3.55.1.4.47.84.92.82,1.44-.04,4.79-.33,4.29-2.54Z"/>
            <path class="cls-3" d="M149.89,159.01c-1.48-2.47-2.9-4.97-4.31-7.47-.67-1.18-1.32-2.37-1.96-3.57-.61-1.14-1.08-2.5-2.09-3.35-.38-.32-1.06.01-1.06.5,0,1.25.71,2.4,1.22,3.51.6,1.31,1.22,2.6,1.85,3.89,1.27,2.58,2.68,5.08,4.16,7.55.8,1.34,3,.29,2.19-1.06Z"/>
            <path class="cls-7" d="M143.51,142.71s.01,0,.02,0c-.6-1.02-.87-2.08-.76-3.27.1-1.06-1.59-1.19-1.65-.13-.01.2-.01.4,0,.6-.14-.1-.28-.18-.42-.26-.24-.13-.54.08-.42.36.26.59.66,1.08,1,1.63.09.16.19.32.27.48.16.41.36.82.6,1.21,0,.02.01.03.02.05,0,0,0,0,0,0,.03.05.06.11.1.16.5.75,1.55-.06,1.24-.82Z"/>
          </g>
          <path class="cls-8" d="M180.4,169.93c-1.69-.86-3.6-1.8-5.51-1.95-1.04-.08-1.97.19-2.89.61-.12-.15-.26-.28-.42-.41,0-.11,0-.23,0-.34-.03-1.2-.54-1.88-1.32-2.44-.72-.8-1.72-1.27-2.72-1.7-1.39-.59-3.52-1.39-5.36-1.34.03-.68-.11-1.38-.45-2.09-.47-.95-1.13-1.56-1.91-1.92-1.59-.81-3.69-.76-5.39-.4-.56.12-.94.44-1.14.84-.54.18-1.06.37-1.54.55-1.11-2.97-2.23-5.95-3.57-8.83-.69-1.5-1.35-3.03-2.11-4.5-.32-.62-.61-1.47-1.01-2.22.02-.17,0-.36-.04-.57-.2-.9-1.06-1.64-1.45-2.49-.41-.89-.43-2.03-1.29-2.6-.07-.04-.13-.07-.2-.1.02-.11.04-.23.04-.34,1.08-.26,1.62-1.15,2.43-1.87.93-.84,1.89-1.63,2.81-2.47.92-.84,1.83-1.7,2.71-2.58.01-.01.03-.03.05-.05.76-.65,1.51-1.32,2.25-2.01.18-.17.32-.35.42-.54.08,0,.15-.01.23-.02.16-.02.28-.21.24-.36l-.03-.14c-.02-.11-.11-.24-.23-.27,0,0-.01,0-.02,0-.03-1.27-1.55-2.35-2.92-1.37-4.53,3.26-9.13,6.45-13.84,9.44-.93.59-1.47,1.66-.95,2.74.24.49.69.86,1.21,1.04.06.08.11.16.17.23.34.37.75.66,1.2.85-.23.29-.29.7.05,1.07.93,1.03,1.57,2.19,1.91,3.55.09.35.37.72.74.8.18,1.01.73,1.96,1.15,2.89.48,1.05.98,2.1,1.49,3.14-.62-.51-1.23-1.02-1.83-1.54-.67-.58-1.34-1.16-2-1.75-.11-.1-.34-.31-.42-.39-.34-.31-.68-.63-1.01-.94-2.28-2.14-4.56-4.3-6.8-6.49.11-.41.19-.83.22-1.26.02-.26.03-.52.02-.78,7.24-5.08,14.41-10.41,20.84-16.47,1.74-1.64,2.24-4.59.5-6.46-1.74-1.87-4.45-2.09-6.46-.5-6.99,5.56-13.85,11.23-21.1,16.44-.04,0-.09-.01-.13-.02-.76-.07-1.52.14-2.18.54-2.98.9-5.56,3.15-5.58,6.55-.02,3.49,2.25,6.46,5.6,7.11-.1.25-.14.53-.11.86.13,1.28.65,2.59.92,3.86.28,1.3.51,2.61.82,3.91.58,2.44,1.29,4.87,2.46,7.1-.64.11-1.27.22-1.91.34-.16-.12-.37-.2-.62-.2-4.23-.15-8.58.09-12.62,1.45-2.64.89-7.3,3.71-5.85,7.2.11.25.23.47.38.65-.87.29-1.72.63-2.51,1.03-1.81.91-1.75,3.72.23,4.41.88.3,1.68.87,2.56,1.19,1.02.37,2.09.6,3.15.77,1.98.32,4.02.35,6.02.31.73-.01,1.33-.27,1.75-.72.21.38.58.66,1.05.67,1.54.28,3.27.1,4.84.04.73-.03,1.24-.4,1.42-.99.1-.03.19-.08.28-.15,1.07-.94.68-2.95.51-4.23-.04-.26-.07-.55-.11-.85,1.12.19,2.25.31,3.39.32.81.01,1.63-.02,2.43-.09.48.32,1.05.4,1.6.31.71.05,1.46-.24,2.02-1.02.1-.14.19-.29.28-.44.03.11.05.22.09.33.7,2.18,2.37,3.95,4.53,4.74,1.34.49,3.06.72,4.69.64.02.02.05.04.07.06.86.56,1.69.5,2.4.1.11-.06.21-.12.31-.19.35,0,.71,0,1.06-.03-.16.4-.33.8-.48,1.2-.2.51,0,1.33.51,1.61.7.37,1.55.99,2.41,1.21-.1.94,0,1.94.1,2.85.05.44.55.89.99.89,6.23-.05,12.5.3,18.69.97,2.76.3,5.9,1.02,8.66.46.95-.19,1.82-.81,2.09-1.77.19-.68.05-1.4-.38-1.89.11-.5.07-1.05-.18-1.63-.11-.25-.22-.5-.33-.75,1.49.68,3.28.36,4.46-.99,3.27-3.75-1.38-7.78-4.54-9.38ZM142.67,145.56c.22.56.47,1.11.64,1.62.07.21.14.41.21.62-.37-.72-.7-1.5-1.15-2.19.1-.02.2-.03.3-.05ZM146.88,158.68c.07.13.15.25.22.38-.11,0-.21-.01-.32-.02-.02,0-.03,0-.05,0,.05-.12.1-.24.15-.36ZM126.84,148.8c4.07,4.37,8.57,8.31,13.28,12.01-.54.33-1.05.71-1.53,1.12-2.26-1.17-4.67-1.8-7.27-1.75-.39,0-.72.1-.98.25-.01-.02-.02-.05-.03-.07-1.23-2.28-1.87-4.72-2.42-7.24-.27-1.23-.57-2.46-.89-3.68-.05-.21-.11-.42-.16-.64ZM113.97,174.37c-.31,0-.61,0-.92-.02l.95-.31c-.01.11-.02.22-.03.33Z"/>
        </g>
        <g>
          <path class="cls-3" d="M115.18,182.48c-3.01-1.85-6.27-2.87-9.81-2.8-.87.02-1.48.4-1.83.94-.57.13-1.13.27-1.62.35-2.02.33-4.04.71-6.05,1.09-1.3.24-1.65,2.43-.21,2.76,3.8.87,7.59,1.77,11.4,2.61.05.01.11.02.16.04,1.06.5,2.17.9,3.33,1.17,1.36.32,2.26-.46,2.5-1.41.85-.44,1.59-1.08,2.28-1.77.81-.8.95-2.3-.15-2.97Z"/>
          <path class="cls-3" d="M97.34,184.78c-.04-.15-.09-.31-.15-.45.01-.03.03-.05.04-.08.09-.02.17-.03.25-.05,1.54-.29,1.46-2.74-.16-2.8-4.92-.17-9.98.11-14.69,1.69-3.07,1.03-8.49,4.32-6.8,8.38.98,2.37,3.63,1.81,5.61,1.41,2.72-.54,5.43-1.08,8.15-1.62,2.16-.43,4.75-.64,6.43-2.23.14-.13.27-.28.39-.43.1-.02.21-.03.31-.05,2.13-.38,2.04-2.86.61-3.78Z"/>
          <path class="cls-3" d="M140.75,179.77c-2.47-5.04-9.64-1.8-13.33-.44-.66.25-1.07.67-1.26,1.16-.82.54-1,1.74-.68,2.69-.59,1.27-.46,2.82.52,4.01,1.2,1.46,3.34,2.14,5.18,2.15,1.14,0,2.7-.29,3.71-1.07,3.96-.5,7.82-4.47,5.85-8.5Z"/>
          <path class="cls-3" d="M162.48,191.01c-1.96-1-4.19-2.1-6.41-2.27-1.39-.1-2.62.33-3.84.93-.01,0-.02.01-.03.02.03-.37.04-.74.03-1.12-.03-1.4-.63-2.19-1.54-2.83-.84-.93-2-1.48-3.17-1.98-2.46-1.04-6.92-2.67-9.15-.49-.28.27-.44.66-.38,1.04-.12.39-.16.82-.08,1.25.46,2.69,2.23,5.02,4.65,6.26.07.04.15.07.23.11-.66,1.33-.41,3.36,1,4.11,2.28,1.21,5.15,1.11,7.67,1.38,2.06.22,4.11.52,6.01,1.4,1.68.77,2.45,1.95,3.67,3.23,1.87,1.95,4.85,1.92,6.63-.12,3.8-4.36-1.61-9.06-5.28-10.92Z"/>
          <path class="cls-3" d="M130.23,127.89c-2.03-2.17-5.18-2.44-7.52-.58-8.5,6.76-16.82,13.67-25.69,19.95-2.32,1.65-2.47,5.64-.59,7.65,2.17,2.32,5.15,2.33,7.65.59,8.87-6.18,17.69-12.67,25.57-20.09,2.03-1.91,2.61-5.34.58-7.52Z"/>
          <path class="cls-3" d="M121.58,171.85c-1.54-1.23-3.06-2.48-4.56-3.76-.78-.67-1.56-1.35-2.32-2.04-.13-.12-.4-.36-.49-.45-.4-.36-.79-.73-1.18-1.1-2.94-2.76-5.88-5.54-8.75-8.37-1.84-1.82-4.92-2.47-6.98-.54-1.98,1.85-2.32,4.86-.54,6.98,5.58,6.68,12.05,12.48,18.89,17.84,2.15,1.69,5.82.97,7.26-1.31,1.59-2.52.97-5.44-1.31-7.26Z"/>
          <path class="cls-7" d="M98.01,146.42c-.88-.08-1.77.16-2.53.62-3.47,1.05-6.47,3.67-6.49,7.62-.03,4.46,3.16,8.2,7.72,8.41,4.42.21,8.3-3.18,8.67-7.59.37-4.52-2.79-8.63-7.36-9.07Z"/>
          <path class="cls-7" d="M104.19,179.89c-1.43-2.65-2.17-5.5-2.82-8.42-.32-1.43-.66-2.87-1.03-4.29-.37-1.43-.69-3.15-1.47-4.4-1.11-1.78-3.7-.99-3.48,1.16.15,1.5.75,3.02,1.07,4.5.32,1.52.6,3.04.96,4.55.71,3,1.59,5.99,3.09,8.7,1.27,2.3,4.95.55,3.69-1.79Z"/>
          <path class="cls-7" d="M110.36,189.32c-.01-.45-.05-.91-.11-1.38-.18-1.3-1.59-2.34-2.91-2.28-.79-.39-1.67-.63-2.58-.76-2.02-.29-4.15-.24-6.19-.27-1.66-.03-3.36.06-4.87.84-1.79.94-3.4,3.25-2.41,5.3.88,1.82,3.34,2.3,5.12,2.72,2.02.48,4.07.8,6.15.83,1.13.01,2.28-.03,3.41-.17,1.11.68,2.63.63,3.64-.77.88-1.22,1.09-2.67.75-4.05Z"/>
          <path class="cls-7" d="M134.48,185.44c-.5-1.47-1.76-2.77-2.89-3.79-2.24-2.02-5.21-3.22-8.23-3.3-5.67-.15-11.57,3.2-12.98,8.97-.69,2.84-.17,5.92,1.9,8.09,2.01,2.12,4.67,3,7.46,3.53,2.77.54,5.81.86,8.51-.14,2.66-.99,4.81-3.47,4.88-6.39.02-.97-.15-1.89-.48-2.75.09-.03.17-.07.26-.11,1.49-.79,2.13-2.52,1.58-4.12Z"/>
          <path class="cls-7" d="M162.96,203.96c-.79-1.83-1.65-3.73-3.02-5.21-1.75-1.89-3.99-2.63-6.3-3.59-2.08-.86-4-2-5.89-3.21-.99-.63-1.96-1.29-2.93-1.95-.4-.27-.85-.52-1.22-.84-.15-.13-.24-.21-.29-.25-.55-2.21-3.06-2.92-4.76-1.94-1.01-.61-2.34-.64-3.31.25-1.82,1.68-2.72,4.23-3.13,6.62-.19,1.13-.24,2.27-.35,3.4-.06.7-.1,1.44-.16,2.17-.4,1.84-.72,4,.3,5.59.64,1,1.77,1.64,2.95,1.71,1.2.07,2.12-.5,3.19-.88,1.48-.51,2.75.09,4.07.77,1.97,1.02,3.88,1.79,6.13,1.95,1.9.13,3.82-.12,5.7-.35,1.7-.21,3.64-.59,5.34-.18,2.48.61,4.75-1.56,3.67-4.07Z"/>
          <path class="cls-7" d="M90.82,192.83c.22-.51.3-1.09.17-1.61-.02-.07-.03-.13-.05-.2-.29-1.18-1.1-1.75-2.23-1.98-1.12-.23-2.47.41-3.55.7-1.31.35-2.62.7-3.92,1.06-2.6.72-5.48,1.41-7.89,2.63-2.1,1.06-2.04,4.34.27,5.13,1.03.35,1.95,1.01,2.98,1.38,1.18.42,2.43.7,3.67.9,2.3.37,4.68.4,7.01.37,1.48-.02,2.49-.87,2.74-2.35.3-1.76.9-3.66.87-5.45,0-.19-.03-.38-.07-.57ZM85.2,195.8c-.01.13-.03.26-.04.39-.36,0-.71,0-1.07-.02.37-.12.74-.24,1.1-.36Z"/>
          <path class="cls-3" d="M96.24,183.92c-.07,0-.07.1,0,.1s.07-.1,0-.1Z"/>
          <path class="cls-3" d="M99.57,155.22c.13-.36.15-.74.06-1.1,0-.02,0-.04,0-.07-.23-1.31-1.42-2.34-2.73-2.49-3.07-.34-4.6,3.74-2.31,5.66,1.06.89,2.81,1.04,3.95.22.45-.33.75-.94.77-1.53.11-.22.2-.45.26-.69Z"/>
          <path class="cls-7" d="M129.51,179.72c-1.42-3.8-2.83-7.62-4.53-11.31-.81-1.75-1.57-3.53-2.46-5.24-.72-1.4-1.32-3.8-2.94-4.34-.56-.19-1.34.08-1.5.71-.41,1.63.74,3.46,1.24,5.01.62,1.89,1.39,3.74,2.11,5.59,1.45,3.78,3.2,7.45,4.93,11.11.98,2.07,3.92.55,3.15-1.53Z"/>
          <path class="cls-7" d="M127.15,139.9c-5.28,3.79-10.62,7.5-16.11,10.98-1.09.69-1.71,1.94-1.11,3.19.52,1.08,1.96,1.69,3.07,1.16,0,0,0,0,0,0,.19.15.31.39.44.58.49.72.9,1.51,1.35,2.26.83,1.39,1.49,2.9,3.28,3.09.7.07,1.24-.39,1.52-.98.64-1.35-.11-2.59-.74-3.78-.55-1.06-1.06-2.14-1.68-3.16-.07-.12-.14-.23-.22-.34,4.59-2.87,8.92-6.13,12.87-9.85,1.96-1.85-.54-4.69-2.69-3.14Z"/>
          <path class="cls-6" d="M122.61,174.72c-2.58-2.94-5.28-5.77-8.11-8.47-1.34-1.28-2.72-2.5-4.13-3.7-1.16-.98-2.53-2.61-4.05-2.89-.33-.06-.49.33-.4.58.29.76.85,1.12,1.45,1.66.72.66,1.43,1.32,2.14,1.99,1.35,1.28,2.67,2.59,3.98,3.91,2.62,2.65,5.12,5.42,7.51,8.29.88,1.05,2.52-.35,1.62-1.38Z"/>
          <path class="cls-6" d="M158.58,200.13c-3.7-1.87-7.37-3.79-11.01-5.76-1.69-.92-3.38-1.82-5.02-2.83-.79-.49-1.65-1.22-2.51-1.55-.62-.24-1.45-.15-2.1-.08-.48.05-.56.85-.08.97.89.22,1.7.3,2.54.73.85.43,1.67.96,2.49,1.45,1.64.98,3.25,2.03,4.88,3.03,3.26,2,6.55,3.96,9.86,5.87,1.29.75,2.29-1.15.94-1.83Z"/>
          <path class="cls-6" d="M123.2,187.88c-.17-.23-.38-.43-.64-.61-.36-.23-.73-.36-1.08-.39-1.05-.31-2.18-.09-2.81.96-.01.02-.02.04-.03.06-.61.7-.94,1.68-.75,2.64.48,2.43,3.53,2.71,5.04,1.23.53-.28.96-.73,1.18-1.38.37-1.09-.1-1.96-.9-2.52Z"/>
          <path class="cls-6" d="M102.82,151.12c-2.27-3.76-8.38-3.92-11.41-1.14-1.16,1.06.46,2.94,1.58,1.85,1.1-1.07,2.51-1.57,4.04-1.47,1.69.11,2.64.96,3.78,2.08.9.89,2.77-.05,2.01-1.32Z"/>
          <path class="cls-6" d="M85.79,191.67c-2.03-.39-4.52.47-6.51.9-1.1.23-2.21.47-3.31.7-.85.18-1.32.19-1.61,1.05-.05.14-.03.32.08.43.63.64,1.01.5,1.87.29,1.19-.29,2.38-.57,3.56-.86,1.92-.46,4.46-.78,6.08-1.97.24-.17.06-.49-.17-.53Z"/>
          <path class="cls-7" d="M124.79,129.84c-.17-.28-.35-.48-.59-.69-.6-.53-1.63-.35-2.2.11-6.77,5.57-13.65,11.07-20.63,16.38-.89.68.08,1.87.99,1.51,0,0,0,.01.01.02,7.65-4.63,14.95-9.62,21.97-15.17.58-.46.84-1.49.45-2.15Z"/>
          <path class="cls-3" d="M117.86,152.51c-.12-.63-.39-1.18-.81-1.67-.66-.7-1.49-1.18-2.47-1.26-.5-.06-.97.01-1.42.2-.46.11-.87.33-1.22.66-.38.3-.66.67-.84,1.1-.26.41-.4.87-.42,1.37.02.32.04.65.05.97.12.63.39,1.18.81,1.67.66.7,1.49,1.18,2.47,1.26.5.06.97-.01,1.42-.2.46-.11.87-.33,1.22-.66.38-.3.66-.67.84-1.1.26-.41.4-.87.42-1.37-.02-.32-.04-.65-.05-.97Z"/>
          <path class="cls-7" d="M140.53,179.47s.02-.01.03-.02c-1.62-2.85-5.44-2.98-8.31-2.37-2.52.53-1.77,4.46.76,3.93,2.29-.48,4.58.2,6.86-.19.68-.12.89-.81.66-1.35Z"/>
          <path class="cls-7" d="M153.14,190.44c-.14-1.41-1.73-1.69-2.24-2.87-.58-1.32-1.02-2.14-2.44-2.69-1.68-.65-3.52-1.01-5.28-1.37-.35-.07-.43.46-.13.59,1.45.61,2.92,1.25,4.3,2.02,1.09.61,1.18,1.42,1.63,2.49.31.75.77,1,1.23,1.45,0,0,0,0,0,0-.47,1.02-.9,2.03-1.51,2.98-.89,1.37,1.05,2.67,2.06,1.43.83-1.01,2.53-2.62,2.39-4.05Z"/>
          <path class="cls-7" d="M166.44,195.26c.02-.32-.12-.69-.41-.86-1.51-.9-2.77-1.95-4.44-2.58-1.53-.57-3.04-.84-4.66-.69-.32.03-.36.56-.05.63,1.77.42,3.55.88,5.14,1.79.68.39,1.34.85,1.93,1.36.68.59.85,1.24,1.82,1.21.32-.01.63-.2.65-.56,0-.1.01-.21.02-.31Z"/>
          <path class="cls-7" d="M86.11,183.7c-1.25-.21-2.63.35-3.81.76-1.44.5-2.8,1.15-4.12,1.92-.99.58-.18,2.2.77,1.6,1.14-.72,2.33-1.36,3.58-1.87,1.21-.5,2.66-.65,3.77-1.34.47-.3.37-.96-.2-1.06Z"/>
          <path class="cls-6" d="M106.1,182.47c.19-1.45-1.91-2.29-2.76-1.14-1.65.23-3.11.76-4.64,1.45-1.43.65-.92,2.78.55,2.93,1.59.16,3.18.32,4.77.48.84.08,1.71-.63,1.73-1.48.03-.77.24-1.47.35-2.23Z"/>
          <path class="cls-6" d="M97.36,190.17c-2.24-1.52-5.32-1.55-7.9-1.2-1.01.14-1.64,1.24-1.48,2.19.48,2.77.89,5.56,1.45,8.32.18.86.92,1.53,1.8,1.61,1.35.11,2.66.01,3.97-.31.89-.22,1.44-.88,1.58-1.77.18-1.17.69-4.4.28-6.69.92-.23,1.04-1.64.29-2.15Z"/>
          <path class="cls-6" d="M136.72,189.28c0-.3-.15-.6-.5-.74-1.24-.51-2.41-.75-3.74-.93-.49-.07-1.01.21-1.28.61-2.68,3.88-4.81,8.21-6.52,12.6-.23.6-.01,1.55.6,1.88,1.21.64,2.82,1.95,4.27,1.35,1.3-.54,2.14-2.53,2.82-3.66,1.83-3.05,3.33-6.29,4.5-9.64.17-.49.09-1.02-.15-1.46Z"/>
          <path class="cls-6" d="M144.84,204.69c-3.52-.41-7.03-.8-10.55-1.17.15-.52.29-1.04.41-1.58.06-.25.02-.5-.08-.72.23-1.23-.87-2.62-2.23-1.82-1.94,1.14-3.34,2.73-4.14,4.84-.36.96.23,1.93,1.13,2.22.25.42.7.73,1.36.78,2.03.27,4.06.47,6.09.63,1.05.13,2.09.27,3.14.41.31.04.59-.01.83-.12,1.25.08,2.5.15,3.75.21,2.38.13,2.65-3.41.29-3.68Z"/>
          <path class="cls-3" d="M162.24,205.28c-1.26-.37-2.2,1.01-1.42,2.06-.36-.49-2.73-.14-3.47-.19-1.34-.08-2.67-.25-4-.41-2.59-.31-5.19-.59-7.8-.79-4.97-.38-9.98-.33-14.96-.1-.11-1.42-.11-2.88-.68-4.18-.17-.38-.68-.38-.92-.07-1.24,1.63-1,3.89-.8,5.82.05.51.64,1.04,1.16,1.03,7.25-.05,14.54.35,21.75,1.13,3.21.35,6.87,1.19,10.08.53,1.1-.22,2.12-.94,2.43-2.06.32-1.16-.17-2.43-1.37-2.78Z"/>
          <path class="cls-3" d="M97.89,199.26c-.16-1.94-.3-3.9-.63-5.81-.29-1.71-.35-3.11-1.74-4.22-.18-.15-.47-.07-.6.11-1.03,1.43-.69,2.85-.61,4.56.07,1.33.18,2.65.27,3.97-1.44-.07-2.92-.1-4.29.17-1.93.38-1.35,3.09.25,3.11,1.8.33,3.81.11,5.63.04,1.13-.04,1.81-.79,1.72-1.92Z"/>
          <path class="cls-3" d="M98.74,194.93c-.21-1.59-.41-4.11-1.62-5.25-.36-.34-1.14-.38-1.29.24-.37,1.58.38,3.42.48,5.04.09,1.48-.44,3.62.59,4.8.31.36.88.42,1.25.1,1.25-1.09.79-3.43.59-4.92Z"/>
          <path class="cls-3" d="M110.28,186.28c-.04-.22-.38-.32-.5-.11-.13.21-.24.59-.36,1.06-.05-.19-.11-.37-.16-.55.24-.5.14-1.17-.43-1.46-.02-.06-.04-.13-.05-.19-.33-1.23-2.41-1.32-2.4.14,0,.11,0,.22.02.32,0,0,0,0,0,0,0,0,0,.01,0,.02.04.3.12.57.25.81.35,1.15.69,2.3,1.06,3.43.2.6.49,1.24.43,1.87-.51,1.07-1.21,1.7-2.25,1.09-.69-.41-1.58.43-.98,1.09,1.22,1.34,3.35.92,4.34-.52.58-.84.77-1.83.74-2.86.39-1.52.47-3.14.29-4.14Z"/>
          <path class="cls-3" d="M98.79,162.34c-.44.2-.93.38-1.42.41-.5.03-.98-.22-1.44.06-.26.16-.39.4-.35.71.03.24.02.35.11.56.06.14.24.17.37.1.92.68,2.75.37,3.56-.15.99-.64.32-2.19-.82-1.69Z"/>
          <path class="cls-3" d="M129.84,187.99c-1.46,1.74-3.13,3.43-4.32,5.37-.29.48-.72,1.79-1.26,2.94-.02.03-.04.05-.06.08-.71.54-1.62.86-2.81.85-2.62-.03-5.5-.55-7.21-2.71-.72-.9-1.25-1.96-1.42-3.11-.2-1.32.05-2.68-.19-4-.31-1.73-1.88-4.49-4-3.39-.54.28-.71.87-.49,1.42.23.59.71.9,1.04,1.42.39.6.46,1.3.49,2,.06,1.5-.04,2.92.43,4.38.81,2.54,2.76,4.59,5.27,5.52,1.56.57,3.56.83,5.46.74.03.02.05.05.09.07,1,.65,1.97.58,2.79.12.39-.21.76-.51,1.08-.88.08-.1.16-.2.24-.3,1.95-1.12,2.84-3.33,3.52-5.46.13-.42-.03-.81-.31-1.07.73-1.21,1.44-2.43,2.17-3.64.2-.34-.25-.64-.5-.35Z"/>
          <path class="cls-6" d="M141.86,186.23c-2.22-1.55-5.58-3.13-7.61-.41-.29.39-.04.88.33,1.07.1.2.29.36.58.43,1.95.48,4.01.63,6,.89,1.1.15,1.56-1.38.7-1.98Z"/>
          <path class="cls-7" d="M120.5,137.22c-5.53,3.85-11.01,7.76-16.46,11.74-.74.54.2,1.63.92,1.08,5.33-4.09,10.62-8.22,15.86-12.43.26-.21-.07-.57-.33-.38Z"/>
          <path class="cls-3" d="M130.87,141.97l-.04-.17c-.03-.13-.13-.28-.27-.31-1-.22-1.53.49-2.24,1.14-1.27,1.16-2.5,2.37-3.78,3.52-1.21,1.09-2.46,2.15-3.72,3.18-.63.51-1.28,1.04-1.98,1.45-.78.45-1.39.68-1.82,1.52-.3.57.06,1.37.8,1.22,1.32-.27,1.96-1.34,2.92-2.21,1.08-.97,2.2-1.89,3.27-2.87,1.07-.98,2.13-1.98,3.16-3,.28-.28,2.78-2.77,2.94-3.14.02.03.03.07.05.1,0,.01.02.02.03.02.13,0,.27-.02.4-.04.19-.02.32-.24.28-.42Z"/>
          <path class="cls-3" d="M121.29,159.93c-.23-1.05-1.23-1.91-1.69-2.9-.47-1.03-.49-2.36-1.51-3.02-.46-.3-.96-.15-1.3.24-.85.94-.35,2.31.04,3.36.22.58.5,1.11.83,1.63.2.31.5.62.76.94-.33.12-.8.2-1.24.25-.59-1.5-1.44-2.83-2.61-3.99-.94-.93-2.49.34-1.58,1.35,1.09,1.2,1.83,2.55,2.22,4.13.12.47.54.97,1.08.96,1.68-.05,5.57-.38,4.99-2.96Z"/>
          <path class="cls-3" d="M126.97,178.31c-1.72-2.87-3.37-5.78-5.02-8.69-.78-1.38-1.54-2.76-2.28-4.16-.71-1.33-1.26-2.91-2.43-3.9-.44-.37-1.23.01-1.23.58,0,1.46.82,2.79,1.42,4.09.7,1.52,1.42,3.03,2.15,4.53,1.48,3.01,3.12,5.91,4.84,8.78.93,1.55,3.49.33,2.55-1.24Z"/>
          <path class="cls-7" d="M119.55,159.34s.01,0,.02,0c-.7-1.19-1.01-2.42-.88-3.81.12-1.23-1.85-1.39-1.92-.15-.01.24-.02.47-.01.7-.16-.11-.32-.22-.49-.31-.28-.15-.63.09-.48.41.31.69.77,1.26,1.16,1.9.11.18.22.37.32.56.18.48.42.95.7,1.4,0,.02.02.04.03.06,0,0,0,0,0,0,.04.06.08.13.12.19.58.87,1.8-.07,1.45-.95Z"/>
        </g>
        <path class="cls-3" d="M199.68,6L124.66.33l-1.51,8.67-31.77,2.11-8.28-4.19-16.99-2.14-17.85-1.44-11.13,7.22-27.23-2.06-.41,2.18-2.88-.22S-1.47,45.15.24,94.83l30.1,3.89,13.86,7.83,55.61-23.01,86.89,5.76,12.99-83.28Z"/>
        <g>
          <rect class="cls-3" x="133.92" y="22.47" width="3.49" height="41.02" transform="translate(3.63 -10.11) rotate(4.33)"/>
          <rect class="cls-6" x="137.22" y="3.39" width="57.21" height="17.67" transform="translate(1.39 -12.47) rotate(4.33)"/>
          <rect class="cls-6" x="138.62" y="24.6" width="50.73" height="7.67" transform="translate(2.61 -12.29) rotate(4.33)"/>
          <rect class="cls-6" x="118.01" y=".35" width="11.56" height="60.72" transform="translate(2.67 -9.25) rotate(4.33)"/>
          <rect class="cls-6" x="135.73" y="49.24" width="50.15" height="3.88" transform="translate(4.32 -11.98) rotate(4.33)"/>
          <rect class="cls-6" x="139.03" y="52.5" width="5.6" height="10.06" transform="translate(4.74 -10.53) rotate(4.33)"/>
          <rect class="cls-6" x="149.9" y="53.33" width="5.87" height="10.06" transform="translate(4.84 -11.36) rotate(4.33)"/>
          <rect class="cls-6" x="162.13" y="54.25" width="5.6" height="10.06" transform="translate(4.94 -12.27) rotate(4.33)"/>
          <rect class="cls-6" x="173" y="55.08" width="5.87" height="10.06" transform="translate(5.04 -13.1) rotate(4.33)"/>
          <rect class="cls-7" x="100.59" y="61.81" width="53.68" height="16.46" transform="translate(5.65 -9.41) rotate(4.33)"/>
          <rect class="cls-6" x="154.43" y="64.89" width="27.72" height="9.14" transform="translate(5.72 -12.5) rotate(4.33)"/>
          <rect class="cls-10" x="115.02" y="1.57" width="2.94" height="59" transform="translate(2.68 -8.7) rotate(4.33)"/>
          <rect class="cls-10" x="94.47" y="7.74" width="21.82" height="4.09" transform="translate(1.04 -7.92) rotate(4.33)"/>
          <rect class="cls-10" x="94.04" y="13.39" width="21.82" height="4.09" transform="translate(1.46 -7.87) rotate(4.33)"/>
          <rect class="cls-10" x="93.59" y="19.37" width="21.82" height="4.09" transform="translate(1.91 -7.82) rotate(4.33)"/>
          <rect class="cls-10" x="93.16" y="25.01" width="21.82" height="4.09" transform="translate(2.34 -7.77) rotate(4.33)"/>
          <rect class="cls-10" x="92.75" y="30.37" width="21.82" height="4.43" transform="translate(2.75 -7.73) rotate(4.33)"/>
          <rect class="cls-10" x="91.03" y="53.11" width="21.82" height="4.43" transform="translate(4.46 -7.53) rotate(4.33)"/>
          <rect class="cls-10" x="92.22" y="36.9" width="21.82" height="5.24" transform="translate(3.28 -7.67) rotate(4.33)"/>
          <rect class="cls-10" x="91.62" y="44.51" width="21.82" height="5.83" transform="translate(3.87 -7.6) rotate(4.33)"/>
          <rect class="cls-15" x="88.98" y="57.5" width="11.78" height="18.15" transform="translate(5.29 -6.97) rotate(4.33)"/>
          <rect class="cls-15" x="49.57" y="57.92" width="37.73" height="12.94" transform="translate(5.05 -4.98) rotate(4.33)"/>
          <g>
            <path class="cls-2" d="M65.53,52.04l5.9.45c.05-.69.11-1.39.17-2.07l-5.9-.45c-.06.69-.11,1.38-.17,2.07Z"/>
            <path class="cls-2" d="M65.7,49.97l-22.94-1.74c-.06.69-.11,1.38-.17,2.07l22.94,1.74c.05-.69.11-1.39.17-2.07Z"/>
            <path class="cls-2" d="M67,36.18l5.9.45c.06-.57.12-1.15.18-1.71l-5.9-.45c-.06.57-.12,1.14-.18,1.71Z"/>
            <path class="cls-2" d="M70.5,9.2l-22.55-1.71c-.02.11-.04.21-.06.32l22.56,1.71c.02-.11.03-.21.05-.32Z"/>
            <path class="cls-2" d="M67.19,34.47l-22.87-1.73c-.07.56-.13,1.14-.2,1.71l22.88,1.73c.06-.57.12-1.15.18-1.71Z"/>
            <path class="cls-2" d="M69.14,18.6l-22.7-1.72c-.07.48-.14.97-.22,1.46l22.72,1.72c.07-.49.13-.98.2-1.46Z"/>
            <path class="cls-2" d="M68.94,20.06l5.9.45c.07-.49.13-.98.2-1.46l-5.9-.45c-.07.48-.13.97-.2,1.46Z"/>
            <path class="cls-2" d="M70.5,9.2c-.02.11-.03.21-.05.32l5.9.45c.02-.11.03-.21.05-.32l-5.9-.45Z"/>
            <path class="cls-15" d="M89.49,36.15l1.09-14.45-15.74-1.19c-.58,4.29-1.17,9.13-1.75,14.4l16.4,1.24Z"/>
            <path class="cls-15" d="M90.69,20.23l.69-9.12-15.03-1.14c-.4,2.6-.85,5.65-1.32,9.08l15.66,1.18Z"/>
            <path class="cls-6" d="M90.17,51.82l1.04-13.81-18.31-1.39c-.46,4.34-.9,8.96-1.3,13.79l18.57,1.4Z"/>
            <path class="cls-7" d="M51.43,89.7l.8-10.58-11.12-.84c-.11,3.67-.19,7.23-.24,10.63l10.57.8Z"/>
            <path class="cls-7" d="M50.27,77.77l.8-10.57-9.5-.72c-.17,3.59-.32,7.14-.43,10.6l9.12.69Z"/>
            <path class="cls-7" d="M49.82,99.34l.67-8.81-9.64-.73c-.04,3.11-.07,6.08-.07,8.86l9.04.68Z"/>
            <path class="cls-6" d="M49.02,108.45l.56-7.37-8.8-.67c0,2.68.02,5.17.05,7.42l8.19.62Z"/>
            <path class="cls-6" d="M65.53,52.04l-22.94-1.74c-.05.59-.09,1.17-.14,1.76-.34,4.51-.62,9.05-.84,13.54l22.94,1.74c.22-4.49.5-9.03.84-13.54.04-.59.09-1.18.14-1.76Z"/>
            <path class="cls-6" d="M67,36.18l-22.88-1.73c-.49,4.34-.95,8.95-1.36,13.79l22.94,1.74c.4-4.83.84-9.45,1.3-13.79Z"/>
            <path class="cls-6" d="M70.45,67.79l17.42,1.32,1.16-15.29-17.6-1.33c-.05.58-.09,1.17-.14,1.76-.34,4.51-.62,9.05-.84,13.54Z"/>
            <path class="cls-6" d="M71.54,2.8l-22.43-1.7c-.31,1.62-.71,3.77-1.16,6.39l22.55,1.71c.41-2.62.76-4.78,1.04-6.4Z"/>
            <path class="cls-6" d="M94.35,11l.49-6.44-17.4-1.32c-.28,1.62-.63,3.78-1.04,6.4l17.95,1.36Z"/>
            <path class="cls-15" d="M70.45,9.52l-22.56-1.71c-.45,2.6-.94,5.64-1.46,9.07l22.7,1.72c.47-3.43.92-6.47,1.32-9.08Z"/>
            <path class="cls-15" d="M68.94,20.06l-22.72-1.72c-.63,4.29-1.28,9.12-1.9,14.39l22.87,1.73c.58-5.27,1.18-10.11,1.75-14.4Z"/>
          </g>
          <g>
            <path class="cls-2" d="M29.81,83.33l-26.72-2.02c0,.3-.02.59-.03.89l26.76,2.02c0-.3,0-.59,0-.89Z"/>
            <path class="cls-2" d="M31.09,49.97l-26.16-1.98c-.03.32-.05.65-.08.97l26.16,1.98c.02-.33.05-.65.08-.97Z"/>
            <path class="cls-2" d="M29.87,74.13l-26.44-2c-.02.41-.04.82-.05,1.22l26.47,2c0-.41.01-.81.02-1.23Z"/>
            <path class="cls-2" d="M29.93,89.84l-26.99-2.04c0,.5-.02.99-.02,1.48l27.06,2.05c-.02-.49-.03-.98-.05-1.48Z"/>
            <path class="cls-2" d="M36.08,14.88l-26.98-2.04c-.07.39-.14.79-.21,1.2l26.91,2.04c.09-.41.18-.81.27-1.2Z"/>
            <path class="cls-2" d="M30.35,61.2l-26.21-1.98c-.02.39-.05.78-.07,1.16l26.23,1.98c.02-.39.04-.77.06-1.16Z"/>
            <path class="cls-2" d="M33.46,28.9l-26.44-2c-.04.3-.07.6-.11.9l26.41,2c.04-.3.09-.6.14-.9Z"/>
            <path class="cls-2" d="M34.97,20.18l-26.73-2.02c-.09.56-.17,1.13-.26,1.72l26.66,2.02c.11-.58.22-1.15.33-1.71Z"/>
            <path class="cls-2" d="M32.15,38.88l-26.24-1.99c-.04.38-.08.76-.11,1.14l26.23,1.98c.04-.38.08-.77.13-1.14Z"/>
            <path class="cls-2" d="M30.09,94.3l-27.22-2.06c0,.4,0,.79,0,1.17l27.28,2.06c-.02-.39-.04-.78-.06-1.18Z"/>
            <path class="cls-6" d="M37.14,10.55l-27.23-2.06c-.26,1.34-.53,2.79-.8,4.35l26.98,2.04c.35-1.56.71-3,1.05-4.33Z"/>
            <path class="cls-6" d="M35.81,16.08l-26.91-2.04c-.22,1.3-.44,2.67-.66,4.12l26.73,2.02c.28-1.44.56-2.81.85-4.1Z"/>
            <path class="cls-6" d="M32.02,40.02l-26.23-1.98c-.3,3.12-.6,6.43-.87,9.95l26.16,1.98c.28-3.52.59-6.83.93-9.95Z"/>
            <path class="cls-6" d="M29.85,75.35l-26.47-2c-.12,2.79-.22,5.44-.29,7.96l26.72,2.02c-.02-2.53,0-5.19.04-7.98Z"/>
            <path class="cls-6" d="M29.82,84.22l-26.76-2.02c-.05,1.95-.1,3.82-.13,5.6l26.99,2.04c-.05-1.79-.09-3.67-.11-5.62Z"/>
            <path class="cls-6" d="M29.97,91.33l-27.06-2.05c-.01,1.01-.03,2-.03,2.96l27.22,2.06c-.04-.96-.08-1.95-.12-2.97Z"/>
            <path class="cls-6" d="M2.87,93.41c0,1.11,0,2.19,0,3.22l27.47,2.08c-.07-1.04-.13-2.12-.19-3.24l-27.28-2.06Z"/>
            <path class="cls-6" d="M33.33,29.8l-26.41-2c-.35,2.82-.68,5.84-1.01,9.09l26.24,1.99c.37-3.24.76-6.27,1.18-9.08Z"/>
            <path class="cls-6" d="M34.64,21.89l-26.66-2.02c-.32,2.18-.64,4.52-.95,7.03l26.44,2c.38-2.5.77-4.84,1.18-7.01Z"/>
            <path class="cls-6" d="M30.29,62.36l-26.23-1.98c-.26,4.15-.46,8.07-.63,11.75l26.44,2c.07-3.69.21-7.62.42-11.77Z"/>
            <path class="cls-6" d="M30.99,51.2c0-.09.01-.17.02-.26l-26.16-1.98c0,.09-.01.17-.02.26-.26,3.47-.49,6.8-.69,9.99l26.21,1.98c.17-3.2.38-6.53.64-10Z"/>
          </g>
        </g>
        <path class="cls-4" d="M288.03,133.89l2.81,13.4s-.12,2.47,2.62,2.08,48.75.4,48.75.4l4.74-4.33,5.57-18.8-64.5,7.24Z"/>
        <polygon class="cls-11" points="289.34 140.13 348.99 138.58 352.53 126.65 288.03 133.89 289.34 140.13"/>
        <polygon class="cls-4" points="540.89 122.53 222.22 138.47 224.3 109.9 478.57 110.11 540.89 122.53"/>
        <polygon class="cls-11" points="223.07 117.18 222.36 138.51 228 137.95 228.76 128.1 436.46 123.2 433.21 127.51 543.04 122.61 545.01 119.45 223.07 117.18"/>
        <rect class="cls-9" x="211.78" y="113.66" width="11.72" height="26.24" transform="translate(10.18 -16.06) rotate(4.33)"/>
        <polygon class="cls-13" points="77.84 107.03 82.74 128.39 150.48 132.04 143.71 104.62 77.84 107.03"/>
        <polygon class="cls-16" points="214.5 114.43 213.37 142.61 211.85 143.23 127.92 136.83 126.2 108.93 214.5 114.43"/>
        <polygon class="cls-1" points="76.33 72.64 44.19 106.54 45.06 113.34 548.58 122.54 550.57 119.76 412.16 75.71 339.41 88.7 76.33 72.64"/>
        <path class="cls-5" d="M129.23,141.89l63.56,5.4,2.53-2.17-3.87-19.22-65.16-3.77c-.79-.05-1.46.54-1.53,1.33-.49,5.33.8,11.24,3.25,17.52.2.51.68.87,1.23.91Z"/>
        <path class="cls-13" d="M181.84,81.5l12.13-66.81-.52-9.98,5.12-3.96,9.14-.67,174.66,49.28,57.01,45.37c.75.6.38,1.8-.58,1.87l-8.78.92-248.18-16.03Z"/>
        <path class="cls-4" d="M264.09,41.97c-2.17-.37-4.59-.7-6.42.53-2.03,1.37-2.53,4.09-2.86,6.52-.47,3.53-.75,7.65,1.82,10.12,1.67,1.6,4.1,2.04,6.39,2.38,10.39,1.55,20.83,2.68,31.27,3.81,1.34.14,2.82.25,3.89-.56.97-.74,1.32-2.03,1.56-3.22.45-2.22.75-4.47.9-6.73.09-1.41.11-2.91-.6-4.13-.93-1.61-2.85-2.33-4.63-2.89-10.36-3.23-20.73-4.01-31.34-5.83Z"/>
        <polygon class="cls-1" points="209.92 18.74 359.32 52.74 381.24 59.33 383.78 49.77 209.12 .49 208.69 11.25 209.92 18.74"/>
        <path class="cls-4" d="M416.74,83.01l-61.92-10s-9.89-2.73-9.04-13.35c.29-4.32,4.14-11.03,14.3-9.32,10.51,1.78,23.25,5.31,23.25,5.31l33.41,27.36Z"/>
        <path class="cls-7" d="M400.25,74.35l-19.3-14.18-22.72-4.08s-6.73-.16-5.34,6.15c1.16,5.27,9.95,6.36,9.95,6.36l37.42,5.75Z"/>
        <path class="cls-6" d="M87.1,72.29l-34.92-2.64c-1.69-.13-3.16,1.13-3.29,2.82-.56,7.04-1.59,24.15,1.03,28.64,3.33,5.69,34.57-21.62,34.57-21.62l2.61-7.2Z"/>
        <polygon class="cls-4" points="195.6 12.48 199.62 13.97 200.54 10.42 208.69 11.25 198.4 82.2 182.94 80.7 195.6 12.48"/>
        <polygon class="cls-14" points="211.05 12.73 380.33 53.87 380.12 52.39 211.02 9.44 211.05 12.73"/>
        <path class="cls-6" d="M367.34,64.36c-.83.39-1.85.9-1.84,1.82,0,.52.4.97.86,1.21s.99.3,1.51.36c2.9.32,5.79.65,8.69.97.39.04.81.08,1.15-.12.31-.19.48-.54.63-.87.82-1.82,1.64-3.63,2.45-5.45-.35.78-7.34-1.89-8.21-1.81-1.03.1-1.43.92-2.1,1.62-.91.93-1.96,1.71-3.14,2.27Z"/>
        <polygon class="cls-13" points="76.4 72.85 44.19 106.54 550.57 119.76 535.64 115.08 74.4 98.69 99.37 73.99 76.4 72.85"/>
        <polygon class="cls-14" points="47.54 105.3 546.04 118.77 539.7 116.81 48.57 103.53 47.54 105.3"/>
        <polygon class="cls-4" points="196.86 72.79 410.84 92.52 430.02 97.53 193.79 81.85 196.86 72.79"/>
        <polygon class="cls-3" points="214.11 124.14 214.5 114.43 126.2 108.93 126.85 119.53 214.11 124.14"/>
        <path class="cls-7" d="M294.07,55.11c0-.25-.01-.48-.03-.7,0,0,0-.01,0-.02,0,0,0,0,0,0-.38-4.33-4.61-4.61-4.61-4.61l-25.66-4.78s-2.45-.74-3.03,3.08c0,0,0,0,0,0,0,0-2.86,8.39,4.87,9.91,4.94.97,21.03,3.67,24.58,3.89,2.67.17,3.3-.44,3.6-3.56.24-.59.26-1.59.28-3.22Z"/>
        <polygon class="cls-4" points="44.19 106.54 45.06 113.34 548.58 122.54 550.57 119.76 44.19 106.54"/>
        <path class="cls-4" d="M193.21,134.69l-1.77-8.79-65.16-3.77c-.79-.05-1.46.54-1.53,1.33-.23,2.44-.08,5,.39,7.67l68.08,3.57Z"/>
        <path class="cls-2" d="M383.78,49.77l55.6,44.96s4.92,3.11-10.47,2.5"/>
        <path class="cls-6" d="M273.34,53.17c-.58.39-1.23,1.11-.83,1.69.48.7,1.94.21,2.19,1.01.16.51-.4.95-.89,1.18s-1.08.57-1.03,1.1c.04.47.56.72,1,.89,1.11.41,2.24.82,3.42.86s2.44-.34,3.16-1.27c.89-1.14.69-2.97-.42-3.89.65-.73,1.66-.98,2.57-1.35s1.84-1.06,1.88-2.03c.04-.8-.58-1.52-1.31-1.86-3.24-1.48-7.21,1.97-9.74,3.67Z"/>
        <path class="cls-4" d="M236.74,73.89c-.03.19,1.47.2,1.59-.25,1.34-5.17,2.54-10.38,3.59-15.62,1.63-6.25,4.23-21.2,6-29.11-.9-.04-1.77-.67-2.66-.71-1.19,7.68-2.78,14.62-4.17,22.95-1.25,7.46-3.2,15.23-4.35,22.74Z"/>
        <path class="cls-4" d="M312.9,45.26c-.81,4.26-1.68,8.58-2.47,13.35-1.25,7.46-3.2,15.23-4.35,22.74-.03.19,1.47.2,1.59-.25,1.34-5.17,2.54-10.38,3.59-15.62,1.11-4.26,2.67-12.56,4.12-19.92-.83-.09-1.66-.19-2.48-.31Z"/>
        <polygon class="cls-4" points="126.29 76.75 102.55 103.29 104.15 103.41 127.98 76.87 126.29 76.75"/>
        <polygon class="cls-4" points="204.43 85.36 192.09 104.82 193.68 104.94 206.11 85.48 204.43 85.36"/>
        <polygon class="cls-4" points="304.45 91.54 298.1 107.69 299.7 107.81 306.14 91.66 304.45 91.54"/>
        <polygon class="cls-4" points="381.52 95.34 381.19 110.9 382.78 111.02 383.2 95.46 381.52 95.34"/>
        <polygon class="cls-4" points="466.4 94.42 465.55 112.9 467.15 113.02 467.75 95.1 466.4 94.42"/>
      </g>
    </g>
  </g>
</svg>