<?xml version="1.0" encoding="UTF-8"?>
<svg xmlns="http://www.w3.org/2000/svg" xmlns:xlink="http://www.w3.org/1999/xlink" viewBox="0 0 5198.39 1695.6">
  <defs>
    <style>
      .cls-1 {
        stroke-dasharray: 40.23 40.23;
      }

      .cls-1, .cls-2, .cls-3, .cls-4 {
        fill: none;
        stroke: #d4cdaf;
        stroke-miterlimit: 10;
      }

      .cls-1, .cls-3 {
        stroke-width: 3px;
      }

      .cls-5 {
        fill: #949286;
      }

      .cls-6 {
        fill: #c9d929;
      }

      .cls-7 {
        fill: #7d717c;
      }

      .cls-8 {
        fill: #3a5157;
      }

      .cls-9 {
        fill: url(#linear-gradient);
      }

      .cls-10 {
        fill: #626349;
      }

      .cls-2, .cls-4 {
        stroke-width: 2px;
      }

      .cls-11 {
        fill: #695f68;
      }

      .cls-12 {
        isolation: isolate;
      }

      .cls-13 {
        fill: #e0b78b;
      }

      .cls-14 {
        fill: #d99b59;
      }

      .cls-15 {
        fill: #e3ac81;
      }

      .cls-16 {
        fill: #bfc297;
      }

      .cls-17 {
        fill: #4e6d75;
      }

      .cls-18, .cls-19 {
        fill: #d4cdaf;
      }

      .cls-20 {
        fill: #ccb8ab;
      }

      .cls-19, .cls-21, .cls-22 {
        mix-blend-mode: screen;
      }

      .cls-19, .cls-22 {
        opacity: .45;
      }

      .cls-23 {
        fill: #b0ae9f;
      }

      .cls-24 {
        fill: #998a51;
      }

      .cls-4 {
        stroke-dasharray: 39.27 39.27;
      }

      .cls-25 {
        fill: #adac89;
      }

      .cls-26 {
        fill: #f37021;
      }
    </style>
    <linearGradient id="linear-gradient" x1="2591.43" y1="1319.7" x2="2591.43" y2="121.52" gradientUnits="userSpaceOnUse">
      <stop offset="0" stop-color="#00e6ff"/>
      <stop offset="1" stop-color="#004a6e"/>
    </linearGradient>
  </defs>
  <g class="cls-12">
    <g id="Layer_2">
      <rect class="cls-9" x="-7.76" y="121.52" width="5198.39" height="1198.18"/>
      <path class="cls-16" d="M231.74,1362.02c3.1,47.27-27.62,94.36-70.07,130.75-5.09,4.37-10.32,8.51-15.67,12.47,92.66-3.25,185.35-6.58,278.14-5.52,103.88,1.19,207.51,6.27,311.2,10.22,104.33,3.97,208.68,4.94,313.15,6.41,753.95,10.63,1508.72,10.86,2262.86,8.88,377.99-.99,756.02-4.45,1133.81-13.27,146.69-3.43,293.36-9.95,440.04-13.94,14.44-19.31,30.77-37.92,49.52-55.27,36.02-33.33,75.07-64.55,114.79-95.55.54-1.82,1.05-3.65,1.54-5.48,6.88-35.28,14.36-70.65,25.99-105.34-1.64.25-3.29.44-5.1.44-9.32,0-18.69-1.95-27.86-2.86-8.98-.89-17.3-2.36-26.57-1.47-13.62,1.31-26.25,4.93-38.68,8.7-12.83,3.89-27.95,6.65-41.74,8.63-7.66,1.1-15.8,1.69-23.62,1.84-22.48.43-45.11,1.42-67.59,1.51-8.2.03-16.88.52-25.01.07-6.65-.37-13.69-2.39-19.97-3.83-14.46-3.32-25.22-5.63-40.83-4.86-13.28.66-26.17,1.22-39.47,1.14-14.07-.08-30.13.42-42.9,4.5-11.21,3.58-23.04,5.24-35.16,6.94-8.21,1.15-16.81,3.41-25.03,3.31-13.61-.16-27.65,1.6-41.02,3.34-11.7,1.53-23.66.34-35.58-.68-11.34-.97-21.68-4.06-32.7-5.31-14.92-1.69-30.22.98-45.09-.56-11.09-1.15-21.06-4.05-30.76-7.62-23.56-8.69-54.6-12.95-81.42-12.76-32.45.23-64.87-1.49-97.38-1.44-40.17.07-80.54.63-120.7-.17-61.82-1.24-122.22-4.68-182.65-13.4-38.92-5.61-77.81-13.36-118-13.4-11.58.42-23.03,1.45-34.36,3.1-16.9,1.89-33.72,4.1-50.44,6.61-21.15,3.12-42.27,6.21-63.56,8.86-30.66,3.81-61.6,6.56-92.76,7.73-24.91.93-52.6,2.5-76.84-2.09-6.65-1.26-12.74-1.53-19.53-1.93-9.22-.54-16.83-3.07-25.8-3.91-31.61-2.95-65.29,1.4-96.75,3.17-17.57.99-33.59,3.89-50.49,7.35-1.03.21-2.06.42-3.09.62-18.22,3.54-36.41,5.4-55.1,7.95-12.33,1.68-24.08,5.26-35.9,8.1-15.16,3.64-30.69,6.54-45.88,10.14-14.85,3.52-28.05,8.45-42.07,13.1-8.74,2.9-17.28,4.44-27.04,3.55-5.3-.48-10.51-1.41-15.71-2.22-5.8-.91-11.61-1.77-17.4-2.74-16.85-2.81-34.23-3.07-51.06-5.77-8.63-1.39-17.03-3.23-25.65-4.63-21.82-3.55-43-8.28-65.61-9.12-12.67-.47-25.28-.17-37.92-1.05-12.64-.88-24.95-2.62-37.4-4.3-21.81-2.96-43.43-7.12-65.81-6.72-33.68.61-67.48.01-101.16.01-28.96,0-58,.43-86.94.08-25.07-.31-49.49-3.88-73.78,1.2-21.66,4.53-44.72,4.9-65.89,10.57-12.35,3.31-29.04,3.33-42.17,2.76-14.04-.61-27.75-2.9-41.83-2.83-12.82.07-25.65,0-38.47,0-15.18,0-29.45-.87-44.54-2.03-29.69-2.27-59.12-3.14-88.96-1.65-22.19,1.11-43.05-.18-65.16-.92-12.19-.4-21.2-1.94-32.9.45-26.09,5.31-52.35,7.75-78.76,12.13-10.06,1.67-19.51,3.69-29.44,5.64-11.68,2.3-23.75,3-35.61,4.72-12.41,1.81-23.59,4.78-36.34,5.23-9.96.35-19.79,1.27-29.77,1.63-22.89.83-44.64,1.96-67.5-.15-20.17-1.86-39.98-3.08-60.31-2.94-9.45.06-19.51-.42-28.86-1.38-2.92-.3-5.62-1.09-8.5-1.41-6.97-.78-14.17.78-21.15.89-6.37.1-11.66.15-17.76,1.41-2.93.61-4.51.99-6.91,2.42-4.99,2.97-9.61,5.12-15.7,7.18-11.71,3.97-26.21,7.56-39.28,9.24-6.52.84-13.13.01-19.68.88-8.5,1.13-16.65,1.9-25.37,2.1-12.27.29-24.66-1.02-36.9-.13-11.38.82-21.7,4.19-33.25,4.69-16.74.73-34.27.04-48.99-5.77-8.28-3.26-15.4-7.68-22.95-11.6-11.13-5.78-23.06-10.38-35.6-14.68-30.23-10.37-59.97-21.66-92.31-28.97-29.57-6.69-58.66-10.56-89.7-10.53-13.16.01-27.54,1.22-40.5-.02-7.27-.7-14.07-3.61-21.22-4.88-4.23-.75-7.4-1.34-11.46-2.39-19.39-5.02-42.04-8.47-62.88-9-8.71-.22-18.07-.13-26.63,1.13-6.39.95-12.65,2.9-19.15,3.36-18.13,1.29-35.99-4.74-54.18-4.61-11.27.08-21.87,2.49-32.99,3.09-7.9.43-16,.12-23.93.01-9.61-.13-17.99-.03-26.72,2.83-8.78,2.87-14.91,7.97-24.52,9.99-7.69,1.62-15.95-.28-23.64-.98-14.07-1.28-28.87-2.69-43.02-.95-23.69,2.91-43.05,15.21-64.35,21.81-6.71,2.08-13,4.89-19.72,6.87-8.9,2.62-21.25,3.14-30.88,3.21-21.33.16-40.66,2.21-61.36,5.45-18.62,2.91-35.17,8.26-52.42,13.42-10.99,3.29-23.77,1.31-35.19,3.13-2.28.36-5.12.96-7.28,1.5-9.53,2.37-21.05,6.15-31.43,5.86-3.51-.1-6.87-.9-10.31-1.32-15.11-1.86-30.65-1.68-45.85-3.59-20.54-2.57-41.3-4.21-61.7-7.31-7.72-1.17-14.37-3.92-21.86-5.47-5.38-1.11-11.21-1.4-16.56-2.45-3.36-.66-5.54-1.65-8.68-2.72-13.19-4.51-28.01-6.87-41.5-10.89-8.28-2.47-16.46.24-25.55.04-9.97-.22-21.16,2.79-30.62,4.77-8.28,1.73-16.53,3.99-25.06,5.18-10.51,1.47-21.13,2.7-31.81,3.75,18.64,28.7,29.02,59.16,31.09,90.71Z"/>
      <path class="cls-25" d="M144.75,1331.31c50.75,33.72,80.47,77.56,90.94,123.87,8.99,13.02,17.72,26.11,25.14,39.48,119.1,1.3,238.19,2.76,357.29,4.07,379.26,4.15,758.19,4.37,1137.4-2.53,379.27-6.9,758.32-18.23,1137.4-28.73,381.25-10.55,762.61-20.26,1144.17-23.75,188.34-1.72,376.71-1.91,565.04.06,135.55,1.42,272.65,6.46,407.99-1.9,35.52-4.33,70.49-10.09,104.7-17.73,17.7-6.06,34.88-12.71,51.55-19.95,9.35-5.57,18.43-11.34,27.2-17.3,1.41-23.91,1.87-47.84,6.42-71.77,5.22-27.42,8.14-55.5,13.84-83.17-3.91.48-7.89,1.25-11.52,1.63-11.32,1.2-22.74,2.1-34.13,2.95-23.88,1.78-47.89,1.08-71.87,1.07-17.1,0-40.75-2.79-56.26,2.86-13.81,5.04-29.08,7.71-44.55,9.33-11.26,1.18-24.43.98-34.82,3.38-6.3,1.46-9.66.35-16.27-.34-14.38-1.51-29.03-2.06-43.46-3.49-19.41-1.92-39.04-4.41-58.54-5.87-14.74-1.1-29.58-1.27-44.31-2.51-38.17-3.19-75.91-15.95-114.23-6.75-19.35,4.65-37.15,10.37-57.47,13.19-23.22,3.22-47.09,2.99-70.23,6.44-15.32,2.29-30.25,4.79-45.88,5.97-14.17,1.07-28.27,2.84-41.68,6.2-11.5,2.88-22.27,2.99-34.65,3-23.4.01-46.92.56-70.23-1.02-21.82-1.48-43.75-.82-65.61.12-48.11,2.08-96.46-.77-144.39-3.34-33.7-1.8-67.41-3.94-100.8-7.51-6.15-.66-15.68-.54-20.46-3.56-3.03-1.91-3.63-4.97-6.41-7.05-4.46-3.35-11.32-3.74-17.52-4.66-7.67-1.13-15.5-2.07-22.87-3.93-10.66-2.7-24.53-1.7-35.72-1.11-21,1.11-42.15,2.32-63.22,2.65-25.46.4-50.91,1.46-76.37,1.36-4.71-.02-7.73.53-12.14,1.82-14.19,4.16-27.24,10.37-41.01,15.09-34.15,11.71-70.98,18.86-109.19,20.92-18.03.97-36.66,3.5-54.76,2.11-33.91-2.6-68.18-3.96-101.7-8.34-43.11-5.63-85.07-13.83-128.88-16.91-5.59-.39-10.84-.18-16.35-.24-13.37-.14-27-2.63-39.83-4.94-27-4.86-53.94-10.91-79.85-17.73-9.14-2.41-17.78-6.21-26.94-8.41-41.77-10.02-86.57-2.49-127.52,4.94-26.8,4.86-53.99,8.58-80.88,13.21-20.96,3.6-42.58,8.54-64.25,10.03-33.39,2.3-67.13,4.43-100.58,6.32-14.51.82-29.12-.7-43.32,1.56-12.15,1.93-24.2,5.86-36.23,8.4-29.9,6.31-52.53,22.89-85.63,23.67-35.97.85-71.72,4.1-107.77,4.08-21.06-.01-42.31.61-63.24-1.09-14.56-1.18-26.88-5.62-41.07-7.52-19.29-2.58-40.28.09-59.25,2.96-28.85,4.36-58.77,7.65-88.43,5.3-12.36-.98-23.56-5.05-35.77-5.82-15.98-1.01-32.79.46-48.85.04-11.54-.3-22.32-1.34-33.56-2.87-8.67-1.18-17.42-.1-26.05-1.24-17.28-2.28-36.46-7.08-51.94-12.37-8.05-2.75-14.15-5.61-20.74-9.56-3.18-1.9-5.26-2.41-9.14-3.22-8.06-1.69-15.06-1.77-23.49-1.93-10.56-.2-20.89-1.77-31.47-2.07-41.49-1.21-86.82,1.6-126.62-8.1-8.44-2.05-10.55-3.93-18.27-2.65-5.1.84-9.46,1.05-14.78,1.01-8.17-.05-18.07-.97-26.06.28-10.99,1.72-21.06,5.96-32.35,7.26-15.21,1.75-32.15.29-47.49.33-45.25.11-88.92-3.94-133.65-7.97-18.71-1.69-36.41-2.31-54.43-5.72-12.13-2.3-22.29-7.63-34.1-9.84-12.99-2.43-24.26-3.58-36.21-7.89-6.59-2.37-12.59-3.86-19.68-5.45-5.09-1.14-8.8-3.48-13.85-4.27-7.59-1.18-16.58.1-24.34-.02-11.1-.17-21.63-2.11-32.8-2.04-16.71.1-32.88-1.79-49.33-2-9.73-.13-19.95-.49-29.64.02-18.77.99-30.69,13.21-45.65,19.44-7.8,3.25-18.15,6.05-27.43,6.29-7.46.19-12.8-.52-19.55.8-14.93,2.92-28.79,5.86-44.67,6.7-12.48.66-34.85,2.8-45.75-3.05.32,1.4-26.77,4.65-30.88,5.08-23.06,2.41-44.6,10.97-68.24,11.58l-16.94-.63c-1.86-1.9-4.18-3.49-6.96-4.75-4.07-1.82-8.19-2.46-13.04-3.22-22.22-3.49-43.48-6.15-65.31-10.88-28.57-6.19-60.17-8.03-87.81-16.06-8.92-2.59-14.61-7.23-24.75-7.54-13.28-.41-26.85,1.64-40.14,2.1-21.82.75-43.03,4.04-64.68,6.02-30,2.75-61.46,3.3-91.64,1.04-12.2-.91-27.61-5.52-40.23-5.37-11.31.14-23.23,5.75-33.67,8.06-21.85,4.84-43.22,11.42-66.07,13.81-11.65,1.22-23.14,3.94-34.98,4.11-11.65.17-20.76-1.36-31.66-4.08-5.47-1.36-11.55-2.57-16.18-4.87-7.87-3.91-10.83-4.29-21.04-3.6-18.21,1.24-35.57,3.78-53,7.44-12.61,2.65-23.29,6.1-36.63,7.95-11.12,1.54-22.14,3.52-33.29,4.9-14.49,1.8-30.18,5.59-44.78,5.91-6.84.15-17.77,1.05-24.75.03-4.07-.59-7.2-1.66-11.43-2.06-14.89-1.43-30.33-2.39-44.94-5.07-11.5-2.11-19.87-4.71-31.83-4.78-4.53-.02-9.05-.06-13.56.21-14.43.85-29.05,2.06-42.7,5.13-15.94,3.59-29.39,10.3-44.2,15.49-4.15,1.46-8.3,2.91-12.45,4.37v4.14c56.24,10.29,110.65,31.32,148.63,56.55Z"/>
      <path class="cls-24" d="M5203.78,1650.96l.69-378.74c-15.06-.9-32.47-.44-47.14-3.11-7.48-1.36-12.79-4.25-19.95-2.56-5.35,2.48-10.57,5.07-15.67,7.78-4.95,1.63-9.89,3.26-14.84,4.88-17.73,5.84-36.86,10.72-56.11,13.94-13.58,2.27-33.19,4.58-47.9.97-5.7-1.4-6.32-4.05-10.43-6.14-3.06-1.55-1.94-1.69-6.4-2.45-8.25-1.41-21.37.6-30.15.41-24.51-.53-48.57-3.97-73.15-4.66-35.18-.99-70.1-1.23-105.32-1.45-60.22-.38-119.79-4.47-179.25-10.69-42.55-4.45-84.17-10.25-125.89-17.15-21.88-3.62-44.37-5.84-66.41-9.02-15.44-2.23-34.18-6.59-50.59-7.82-18.95-1.42-38.31,1.22-57.31,1.66-18.06.41-35.04,4.84-52.62,7.29-61.46,8.57-124.17,10.47-186.37,14.93-33.59,2.41-65.08,9.11-99.08,9.26-23.07.1-46.61.16-69.24-3.08-48.27-6.9-97.4-7.69-146.7-9.65-39.54-1.57-86.76.27-123.69-9.47-7.43-1.24-13.91-3.61-19.46-7.09-.35-.17-.7-.34-1.05-.51-2.34-.2-3.42.36-6.09.68-12.34,1.48-25.33,5.06-37.56,7.23-21.95,3.89-45.11,10.49-67.79,11.7-16.49.88-31.19,3.83-47.96,5.92-49.54,6.18-100.89,9.97-151.24,11.38-51.26,1.44-103.55-2.08-154.65-4.93-59.15-3.3-118.51-3.32-177.73-6.22-50.47-2.48-101.19-8.04-151.79-8.42-44.51-.34-90.13,7.08-134.25,10.04-34.9,2.34-69.36,2.35-104.42,2.2-18.44-.08-36.14.02-54.4,1.97-12.06,1.29-24.42,1.09-36.08,3.11-25.15,4.37-50.62,8.14-76.34,10.76-76.83,7.84-155.52,8.18-230.71-6.17-13.7-2.62-25.7-5.71-39.85-6.8-13.34-1.02-26.48-.86-39.86-.17-30,1.55-59.28,3.75-88.87,7.18-33.05,3.83-67.2,6.51-100.45,9.45-27.24,2.41-54.3,2.86-81.76,2.19-28.3-.69-54.66-5.78-82.29-9.02-14.59-1.71-29.65-.73-44.42-1.78-45.66-3.25-91.73-10.18-136.23-17.53-19.64-3.24-38.09-10.11-58.36-11.56-16.89-1.21-34.38.2-51.11,1.88-31.37,3.16-61.88,9.77-93.03,13.8-35.08,4.55-72.28,6.71-107.85,8.72-58.42,3.29-116.38.16-174.52,5.7-28.38,2.71-57.48,6.27-86.17,5.56-19.27-.48-37.76-4.23-56.7-6.46-24.56-2.89-47.73-6.62-71.48-11.61-11.74-2.47-25.12-6.76-37.33-7.36-7.41-.36-16.22,1.47-23.57,2.16-14.42,1.35-28.13,3.63-42.33,5.5-59.07,7.8-116.85,16.36-177.12,19.69-41.71,2.3-83.35,4.48-125.21,4.36-28.49-.08-56.99-.09-85.48.03-16.17.07-31.96-1.36-48.1-1.84-33.72-1.01-67.56.81-101.28-.59-11.65-.48-23.39-1.83-35.07-1.84-16.76-.02-34.24,1.45-50.89,2.24-40.95,1.95-80.52,2.53-121.35.56-.64-.03-1.28-.06-1.93-.09l-.66,360.86h5198.3Z"/>
      <path class="cls-13" d="M5198.39,1565.07l-2.61-262.65s-40.55-1.57-56.8-1.46c-33.41.22-66.52-2.82-99.88-2.44-24.8.28-49.07,4.08-73.73,5-27.3,1.02-54.17,2.11-81.54,2.11-50.87,0-102.22-1.86-152.74,3.18-27.92,2.79-55.9,5.52-83.85,8.11-18.73,1.73-36.86,1.82-55.45,3.29-57.44,4.55-116.28,1.69-174.06,1.83-67.01.17-134.1-3.74-201.02-6.54-96.36-4.02-192.7-3.52-289.05-1.16-119.38,2.92-238.75,8.5-358.19,9.81-141.59,1.54-283.08-11.67-424.64-13.55-89.23-1.18-178.75-1.62-267.93.11-62.18,1.2-124.34,4.59-186.58,4.39-21.48-.07-42.36,1-63.76,2-11.01.51-21.59,2.42-32.52,2.93-51.37,2.37-102.87,2.24-154.33,2.08-49.77-.16-99.78-2.55-149.47-4.86-36.72-1.7-73.56-1.85-110.19-4.54-48.26-3.55-97.03-5.47-145.46-6.66-48.81-1.2-97.4,1.01-146.17,1.73-90.4,1.33-180.97.2-271.4.2-20.22,0-40.45,0-60.67,0-8.42,0-17.19-.64-25.51.52-26.55,3.7-51.95,6.62-79.07,6.5-90.73-.4-180.85,4.48-271.64,4.71-23.82.06-47.15-1.95-70.87-2.51-21.09-.5-42.32.08-63.42.17-37.66.17-75.82-3.52-113.51-4.5-48.39-1.26-96.89-2.36-145.3-2.25-31.43.07-60.38,4.58-89.4,13.71-27.76,8.73-54.83,14.58-84.99,15.51-48.01,1.48-96.06,0-144.1,1.75-13.08.48-26.17.88-39.28.86-29.55-.05-58.73-1.4-88.24-2.16-21.33-.55-42.8.99-63.99-1.57-7.86-.95-15.45-2.52-23.24-3.75-15.59-2.46-31.44-3.75-47.11-5.78-14.44-1.86-28.56-4.55-42.72-7.17.46,14.76.36,29.56-.33,44.41-2.31,49.17-9.8,98.13-18.67,146.75-3.16,17.34-6.68,34.64-10.42,51.9h5063.83Z"/>
      <path class="cls-15" d="M5185.63,1521.89l25.13-207.16s-40.39-1.24-56.65-1.15c-33.43.17-66.23-2.23-99.62-1.93-24.83.22-49.5,3.22-74.26,3.94-27.4.8-54.4,1.67-81.76,1.67-50.87,0-102.02-1.47-153.07,2.5-28.21,2.2-56.48,4.36-84.7,6.39-18.91,1.37-37.06,1.43-55.8,2.6-57.92,3.59-116.46,1.33-174.26,1.45-67.03.13-133.7-2.95-200.33-5.15-95.93-3.17-192.33-2.77-288.92-.92-119.68,2.3-239.65,6.71-359.23,7.74-141.76,1.22-281.84-9.21-423.21-10.69-89.11-.93-178.58-1.27-267.94.09-62.3.95-124.83,3.62-187.04,3.46-21.47-.06-42.46.79-63.97,1.58-11.07.4-21.84,1.91-32.83,2.31-51.62,1.87-103.11,1.77-154.55,1.64-49.76-.12-99.51-2.01-148.95-3.83-36.54-1.34-73.36-1.46-109.71-3.58-47.88-2.8-96.45-4.31-144.76-5.25-48.69-.95-97.51.8-146.35,1.36-90.54,1.05-180.99.15-271.42.15-20.22,0-40.45,0-60.67,0-8.43,0-17.12-.5-25.57.41-26.94,2.92-52.65,5.22-79.75,5.13-90.69-.31-181.32,3.54-272.14,3.71-23.82.05-46.95-1.54-70.6-1.98-21.04-.4-42.33.06-63.43.14-37.68.13-75.45-2.78-113.04-3.55-48.26-1-96.64-1.86-145.06-1.78-31.44.06-60.87,3.61-90.85,10.81-28.68,6.88-56.37,11.5-86.62,12.23-48.16,1.16-96.06,0-144.28,1.38-13.13.38-26.27.69-39.37.67-29.54-.04-58.58-1.1-88.01-1.71-21.27-.44-42.91.78-63.82-1.24-7.76-.75-15.18-1.99-22.84-2.96-15.33-1.94-31.04-2.96-46.5-4.56-14.24-1.47-28.08-3.59-41.96-5.66-1.1,11.64-2.76,23.31-5.02,35.03-7.5,38.78-20.16,77.4-34.17,115.75-5,13.68-10.34,27.32-15.9,40.94h5063.83Z"/>
      <path class="cls-14" d="M5198.39,1529.49v-197.83s-40.54-1.18-56.79-1.1c-33.41.17-66.5-2.13-99.86-1.84-24.8.21-49.11,3.07-73.78,3.77-27.31.77-54.19,1.59-81.56,1.59-50.87,0-102.2-1.4-152.77,2.39-27.95,2.1-55.95,4.16-83.93,6.11-18.75,1.3-36.88,1.37-55.48,2.48-57.48,3.43-116.3,1.27-174.08,1.38-67.01.13-134.06-2.82-200.96-4.92-96.32-3.03-192.66-2.65-289.04-.87-119.4,2.2-238.83,6.41-358.29,7.39-141.61,1.16-282.96-8.79-424.51-10.21-89.22-.89-178.73-1.22-267.93.08-62.19.9-124.39,3.46-186.62,3.3-21.48-.05-42.37.76-63.78,1.5-11.02.39-21.61,1.82-32.55,2.2-51.39,1.78-102.9,1.69-154.36,1.57-49.77-.12-99.75-1.92-149.42-3.66-36.7-1.28-73.54-1.39-110.15-3.42-48.22-2.67-96.98-4.12-145.39-5.02-48.8-.91-97.41.76-146.18,1.3-90.41,1-180.98.15-271.41.15-20.22,0-40.45,0-60.67,0-8.42,0-17.18-.48-25.52.39-26.59,2.79-52.01,4.99-79.13,4.9-90.72-.3-180.89,3.38-271.69,3.55-23.82.04-47.13-1.47-70.84-1.89-21.09-.38-42.33.06-63.42.13-37.66.13-75.78-2.65-113.47-3.39-48.38-.95-96.87-1.78-145.28-1.7-31.43.06-60.43,3.45-89.54,10.32-27.85,6.57-54.97,10.98-85.14,11.68-48.02,1.11-96.06,0-144.11,1.32-13.09.36-26.18.66-39.29.64-29.54-.04-58.71-1.05-88.22-1.63-21.32-.42-42.81.75-63.97-1.18-7.85-.71-15.42-1.9-23.2-2.82-15.56-1.85-31.4-2.83-47.05-4.35-14.42-1.4-28.51-3.43-42.64-5.4.31,11.12.07,22.26-.78,33.45-2.8,37.04-10.77,73.91-20.13,110.54-3.34,13.06-7.02,26.09-10.94,39.09h5063.83Z"/>
      <rect class="cls-11" x=".31" y="1365.76" width="5198.39" height="330.4"/>
      <g>
        <path class="cls-19" d="M1292.24,1458.82c93.57,65.18,46.52,168.49-193,169.98-240.3,1.5-325.97-101.4-256.13-167.69,40.39-38.33,130.35-59.59,214.02-59.98,83.58-.39,180.9,19.93,235.1,57.69ZM1058.93,1406.33c-76.73.36-158.74,21.56-194.67,55.96-61.47,58.85,18.61,142.57,233.76,141.23,214.45-1.34,259.11-84.46,175.51-142.32-48.96-33.88-137.96-55.23-214.59-54.87Z"/>
        <path class="cls-19" d="M1222.58,1485.88c21.84,26.39-31.57,51.91-122.39,52.68-90.32.76-161.43-23.47-159.58-49.85,1.58-22.62,57.74-39.33,125.88-40.09,68.43-.77,137.39,14.67,156.09,37.26ZM1056.58,1465.4l14.12,16.67-44.31,2.52,10.85,15.27,39.8-3.42,16.55,19.2,34.61-2.26-19.66-18.92,41.85-1.92-18.6-14.91-37.16,1.71-13.24-14.5-24.81.55Z"/>
      </g>
      <path class="cls-5" d="M691.86,1043.76l-691.29-.63-.17,184.29c42.21-2.71,84.6-1.64,126.86-.29,46.41,1.47,92.74,2.29,139.17,1.73,46.86-.57,93.52-3.45,140.33-5.42,11.54-.49,23.09-.92,34.63-1.42,8.78-.38,17.68-.4,26.4-1.55,3.29-.43,6.58-.9,9.89-1.16,1.6-.13,3.21-.22,4.82-.19.77.02,1.53.08,2.3.13,6.19.39,22.41,2.47,28.35,3.82,9.54,2.16,18.94,6.04,27.12,11.34,4.26,2.76,17.83,13.28,21.47,16.62.33.3.59.65.91.95,13.35,12.64,24.07,32.6,28.92,50.1.37,1.33.6,2.64.83,3.99,1.69,9.76,3.44,20.31,3.92,30.23.15,3.03-.06,6.07-.39,9.07-1.74,15.71-3.61,31.53-7.41,46.9-2.33,9.42-5.3,18.65-7.32,28.12-1.21,12.18-2.1,24.38-2.81,36.6-1.93,33.09-2.27,66.17-3.24,99.3-.54,18.26-2.77,36.77-2.78,55.15,2.69,4.66,4.89,9.61,6.6,14.84,1.69,2.91,3.06,5.9,4.14,8.98l138.77-270.02.25-275.42-30.27-46.07Z"/>
      <path class="cls-23" d="M721.6,1063.67c-43.06-50.27-91.79-9.29-148.33,151.28-4.59,13.04-6.94,26.76-6.94,40.58l.41,412.17,155.27-302.8-.41-301.23Z"/>
      <path class="cls-10" d="M603.45,1595.33v-337.99c30.16-127.17,81.03-189.38,100.41-157.49v300.44s-100.41,195.04-100.41,195.04Z"/>
      <polygon class="cls-7" points="703.86 1400.29 603.45 1400.29 603.45 1596.12 703.86 1400.29"/>
      <g class="cls-22">
        <g>
          <line class="cls-2" x1="1488.1" y1="1475.64" x2="1508.1" y2="1475.64"/>
          <line class="cls-4" x1="1547.37" y1="1475.64" x2="3098.49" y2="1475.64"/>
          <line class="cls-2" x1="3118.13" y1="1475.64" x2="3138.13" y2="1475.64"/>
        </g>
      </g>
      <g class="cls-22">
        <g>
          <line class="cls-3" x1="1438.06" y1="1581.93" x2="1458.06" y2="1581.93"/>
          <line class="cls-1" x1="1498.29" y1="1581.93" x2="3168.01" y2="1581.93"/>
          <line class="cls-3" x1="3188.13" y1="1581.93" x2="3208.13" y2="1581.93"/>
        </g>
      </g>
      <g class="cls-21">
        <polygon class="cls-26" points="1526.82 1528.73 1458.19 1528.73 1468.4 1516.32 1536.09 1516.38 1526.82 1528.73"/>
        <path class="cls-26" d="M3002.26,1528.73h-110.03s-7.61-11.07-7.61-11.07l108.83.1,8.81,10.96ZM2780.07,1528.73h-114.34s-5.07-11.28-5.07-11.28l113.04.11,6.36,11.17ZM2549.14,1528.73h-118.9s-2.31-11.5-2.31-11.5l117.5.11,3.72,11.39ZM2308.94,1528.73h-123.75s.67-11.73.67-11.73l122.23.12.85,11.61ZM2058.91,1528.73h-128.89s3.9-11.97,3.9-11.97l127.25.12-2.25,11.85ZM1798.43,1528.73h-134.37s7.41-12.22,7.41-12.22l132.58.13-5.62,12.09Z"/>
        <polygon class="cls-26" points="3162.64 1528.73 3110.23 1528.73 3100.26 1517.87 3152.12 1517.92 3162.64 1528.73"/>
      </g>
      <path class="cls-18" d="M2115.9,1109.11c-1.19-3.76-4.58-5.86-8.35-6.26-2.85-.31-5.88.52-8.69.97-.96.15-1.91.3-2.87.46-.1-1.32-.73-2.56-1.75-3.54.12-.44.18-.88.16-1.31-.13-3.07-2.28-4.88-5.19-5.21-4.45-.5-9.21-.78-13.51.73-2.35.83-4.55,2.05-6.3,3.85-2.18,2.25-2.87,5.24-1.84,7.98-2.01-.05-3.98-.51-5.99-.5-2.95,0-5.89.94-7.95,3.14-2.02,2.16-3.05,5.16-2.34,8.08.73,3.01,3.44,5.24,6.4,5.89,5.17,1.14,10.65-.11,15.55-1.82,2.27-.79,4.5-1.69,6.78-2.46,1.05-.35,2.1-.68,3.17-.95.53-.13,1.07-.26,1.61-.36.29-.06.6-.13.9-.17-.09.02.12.03.3.03.04.02.09.05.15.08.45.26.89.55,1.35.8,1.19.66,2.46,1.2,3.73,1.68,2.29.87,4.78,1.28,7.22,1.44,4.51.28,9.88-.72,13.67-3.3,3.03-2.07,4.95-5.56,3.79-9.26Z"/>
      <polygon class="cls-20" points="4776.66 1365.9 5157.13 1695.32 5198.7 1695.32 5198.7 1365.92 4776.66 1365.9"/>
      <polygon class="cls-6" points="4951.24 1365.9 5198.7 1511.15 5198.7 1365.91 4951.24 1365.9"/>
      <polygon class="cls-20" points="4711.67 1365.9 5033.73 1695.32 4873.2 1695.32 4634.85 1365.92 4711.67 1365.9"/>
      <polygon class="cls-20" points="4583.33 1365.9 4770.7 1695.32 4713.07 1695.32 4559.12 1365.92 4583.33 1365.9"/>
      <g>
        <rect class="cls-8" x="716.58" y="1361.05" width="3759.49" height="14.64"/>
        <polygon class="cls-17" points="4476.07 1361.23 716.58 1360.9 718.23 1358.17 4474.07 1358.17 4476.07 1361.23"/>
      </g>
    </g>
  </g>
</svg>