<?xml version="1.0" encoding="UTF-8"?>
<svg id="Layer_1" data-name="Layer 1" xmlns="http://www.w3.org/2000/svg" viewBox="0 0 1000 1000">
  <defs>
    <style>
      .cls-1 {
        fill: #231f20;
      }
    </style>
  </defs>
  <path class="cls-1" d="m344.88,508.82c1.02,2.57,3.63,8.94,5.91,12.48,1.09,1.7,2.94,2.64,4.84,2.64.98,0,1.97-.25,2.88-.78,3.84-2.23,29.5-17.11,30.39-17.65,0,0,4.55-2.84,7.82-4.87,1.75-1.09,2.78-3.02,2.71-5.07-.09-2.75-.18-5.66-.18-8.4,0-56.99,17.22-97.14,26.47-118.71.58-1.35.62-2.87.11-4.25-3.86-10.5-38.78-41.93-60.34-41.93-1.7,0-3.33.19-4.83.57-7.88,1.96-13.95,4.45-20.21,18.75-5.53,12.69-11.12,44.32-11.12,80.22,0,23.06,2.38,56.08,13.67,82.3l1.9,4.7Z"/>
  <path class="cls-1" d="m291.84,572.28c.34.06.68.09,1.01.09,1.32,0,2.61-.45,3.64-1.3,1.81-1.48,29.4-23.97,29.42-23.99l12.79-10.53.48-.24c.43-.16.86-.37,1.26-.63,2.63-1.75,3.35-5.3,1.61-7.94-19.39-29.45-27.97-65.89-27.8-118.15,0-2.9-2.14-5.35-5.02-5.72-12.29-1.57-24.62-2.37-36.67-2.37-27.64,0-53.68,4.22-75.3,12.19-2.15.79-3.63,2.79-3.75,5.09-.04.77-.06,1.55-.06,2.33,0,35.07,34.93,91.6,67.79,126.98,13.25,14.26,24.39,23.08,30.58,24.18Z"/>
  <path class="cls-1" d="m258.08,589.33c.27,0,.53-.02.79-.06l3.86-.58c3.04-.44,5.19-3.2,4.88-6.26-.18-1.77-.71-4.5-3.23-9.97-.02-.04-.04-.08-.06-.13-6.89-14.88-46.61-61.05-89.84-61.05h-.42c-3.11.02-5.64,2.52-5.71,5.63-.21,10.95,6.3,23.43,18.85,36.07,19.88,20.04,51.51,36.34,70.49,36.34h.37Z"/>
  <path class="cls-1" d="m440.06,675.9c.43.1.88.16,1.33.16.2,0,.4-.01.6-.03,2.6-.27,4.69-2.26,5.08-4.84,1.37-8.92,2.06-17.54,2.06-25.61,0-32.48-11.03-54.8-29.5-59.71-2.4-.64-5-.96-7.7-.96-26.33,0-59.19,29.53-72.09,42.23-1.1,1.08-1.72,2.56-1.72,4.1,0,2.47,1.62,5.42,4.81,8.77,11.1,11.66,29.57,21.14,54.91,28.16,18.32,5.08,33.75,7.01,35.28,7.19,3.43.52,5.69.55,6.95.55Z"/>
  <path class="cls-1" d="m419.86,513.57c-1.96-.23-3.98-.34-5.99-.34-28.23,0-55.85,22.28-82.57,43.83-6.09,4.89-7.66,6.16-8.13,6.54h0c-28.07,22.4-57.09,45.56-88.98,45.56-1.49,0-3-.05-4.48-.15-2.51-.16-4.88,1.34-5.77,3.73-.89,2.38-.1,5.07,1.93,6.6,19.44,14.62,36.87,21.73,53.29,21.73,24.82,0,44.53-16.22,65.39-33.39l2.19-1.8c18.78-15.45,48.38-33.49,69.97-33.49,1.18,0,2.33.06,3.41.17,11.09,1.14,25.47,9.53,32.6,25.72,13.13,29.59,11.35,71.74-4.65,110-1.94,4.66-4.89,7.55-7.69,7.55s-5.35-1.25-7.13-3.44c-.67-.82-1.58-1.45-2.58-1.8-2.86-1-6.01.4-7.19,3.19-.93,2.2-2.23,5.86-2.86,8.95-.75,3.78-1.13,7.39-1.13,10.74,0,14.08,6.65,19.14,10.62,20.91,2.16.96,4.52,1.45,7.01,1.45,6.99,0,14.26-3.91,18.98-10.21,18-23.99,29.9-62.66,31.83-103.44,1.97-41.62-6.29-77.57-22.65-98.63-14.16-18.24-29.02-28.03-45.43-29.94Z"/>
  <path class="cls-1" d="m631.93,487.21c0,2.18-.07,4.43-.14,6.67l-.05,1.7c-.06,2.04.97,3.96,2.7,5.04l2.4,1.5c2.92,1.82,5.93,3.7,6.48,4.03,0,0,21.48,12.45,29.32,17,.91.53,1.9.78,2.88.78,1.89,0,3.75-.94,4.84-2.64,2.03-3.16,4.31-8.47,5.86-12.34l1.92-4.74c11.32-26.34,13.69-59.35,13.69-82.4,0-35.89-5.59-67.52-11.12-80.24-6.29-14.31-12.33-16.8-20.19-18.76-1.5-.38-3.13-.57-4.83-.57-21.58,0-56.5,31.44-60.36,41.94-.51,1.38-.47,2.9.11,4.25,9.26,21.59,26.49,61.77,26.49,118.75Z"/>
  <path class="cls-1" d="m690.48,534.98c.38.31.9.73,1.56,1.23l13.13,10.81s24.86,20.29,29.48,24.06c1.03.84,2.32,1.29,3.63,1.29.33,0,.67-.03,1-.09,6.17-1.09,17.28-9.87,30.49-24.08,32.97-35.45,68.01-92.07,68.01-127.16,0-.5-.01-.99-.03-1.48v-.53c-.07-2.35-1.56-4.43-3.76-5.25-21.76-8.06-47.95-12.32-75.74-12.32-11.88,0-24.05.77-36.17,2.3-2.87.36-5.03,2.81-5.03,5.7,0,52.17-8.56,88.53-27.76,117.9-1.61,2.46-1.1,5.75,1.19,7.6Z"/>
  <path class="cls-1" d="m862.58,516.35c-.12-3.09-2.66-5.52-5.74-5.52h-.02c-43.33.2-83.3,46.84-90.09,61.65-2.54,5.6-3.03,8.39-3.18,10-.28,3.03,1.85,5.76,4.86,6.21l3.89.58c.26.04.52.06.78.06h.37c18.97,0,50.58-16.3,70.46-36.33,12.64-12.73,19.09-25.41,18.66-36.65Z"/>
  <path class="cls-1" d="m691.13,626.6c-9.95-9.78-44.53-41.7-71.57-41.7-2.71,0-5.31.32-7.72.96-18.66,4.96-29.8,27.68-29.8,60.75,0,7.6.58,15.55,1.73,23.62.2,2.32,1.76,5.59,8.89,5.59,1.7,0,3.67-.17,5.87-.5,3.22-.38,64-7.97,90.04-35.33,2.84-2.99,6.96-8.69,2.73-13.22-.06-.06-.11-.12-.17-.18Z"/>
  <path class="cls-1" d="m801.62,609.43c-33.65,1.87-64.05-22.41-93.51-45.91l-8.12-6.52c-26.69-21.52-54.29-43.78-82.48-43.78-2.01,0-4.03.12-5.99.34-16.4,1.91-31.26,11.7-45.43,29.94-16.37,21.06-24.62,57.02-22.65,98.63,1.93,40.78,13.83,79.45,31.83,103.45,4.73,6.29,12.01,10.2,18.99,10.2,2.49,0,4.84-.49,7-1.45,3.96-1.77,10.6-6.83,10.6-20.91,0-3.27-.38-6.9-1.13-10.73-.49-2.57-1.68-6.43-2.36-8.63-.55-1.77-1.97-3.13-3.72-3.71-1.75-.58-3.74-.26-5.24.82-.49.32-.93.71-1.3,1.16-1.79,2.19-4.4,3.44-7.16,3.44s-5.72-2.89-7.66-7.54c-16.02-38.25-17.81-80.4-4.68-110,6.2-14.02,19.32-24.36,32.66-25.73,1.09-.11,2.23-.17,3.4-.17,21.53,0,51.14,18.05,69.95,33.5l2.21,1.82c21.83,17.96,40.68,33.47,65.59,33.47,16.33,0,33.66-6.99,52.96-21.37,2.03-1.51,2.83-4.18,1.97-6.57-.86-2.38-3.18-3.92-5.72-3.78Z"/>
  <path class="cls-1" d="m617.96,461.87l-.35-3.54c-2.76-28.79-17.39-69.28-38.18-105.65-10.7-18.71-38.32-62.31-63.71-62.97-.1,0-.2,0-.3,0-25.4.66-53.02,44.26-63.72,62.97-20.79,36.37-35.41,76.86-38.16,105.62l-.37,3.64c-.53,5.29-1.19,11.86-1.19,17.98,0,7.12.77,17.06,7.38,21.12.2.12.41.23.62.33l8.5,3.89c.09.04.19.08.28.12l8.5,3.35c56.54,23.53,60.77,64.2,60.77,123.56,0,5.49-.04,11.11-.08,16.87l-.09,11.35-.46,22.81-.02.75c-.22,7.75-.43,15.07-.43,22.29,0,8.5.28,15.38.88,21.67,0,.08.02.16.03.25,1.52,10.94,4.76,22.18,17.3,22.6.06,0,.13,0,.19,0,.06,0,.12,0,.18,0,12.86-.41,16.11-10.94,17.7-22.27.01-.09.02-.18.03-.27.61-6.51.89-13.57.89-22.25,0-7.66-.23-15.77-.43-22.88l-.46-22.63-.09-10.98c-.04-5.98-.08-11.81-.08-17.5,0-59.24,4.23-99.82,60.66-123.32l8.61-3.39c.1-.04.19-.08.29-.12l8.47-3.88c.21-.09.41-.2.6-.32,6.65-4.06,7.42-14.04,7.42-21.19,0-6.35-.71-13.37-1.19-18Z"/>
</svg>